<!-- icon666.com - MILLIONS vector ICONS FREE --><svg enable-background="new 0 0 520 520" viewBox="0 0 520 520" xmlns="http://www.w3.org/2000/svg"><g id="_x31_166_x2C__Direction_x2C__Weather_x2C__Wind"><g><path d="m85 120h180c27.57 0 50-22.43 50-50s-22.43-50-50-50c-5.522 0-10 4.477-10 10s4.478 10 10 10c16.542 0 30 13.458 30 30s-13.458 30-30 30h-180c-5.523 0-10 4.477-10 10s4.478 10 10 10z" fill="#000000" style="fill: rgb(148, 133, 153);"></path><path d="m30 167.272h332.283c37.339 0 67.717-33.033 67.717-73.636s-30.378-73.636-67.717-73.636c-5.522 0-10 4.477-10 10s4.478 10 10 10c26.312 0 47.717 24.062 47.717 53.637s-21.405 53.636-47.717 53.636h-332.283c-5.523 0-10 4.477-10 10s4.478 9.999 10 9.999z" fill="#000000" style="fill: rgb(148, 133, 153);"></path><path d="m335 400h-180c-5.523 0-10 4.478-10 10s4.477 10 10 10h180c16.542 0 30 13.458 30 30s-13.458 30-30 30c-5.522 0-10 4.478-10 10s4.478 10 10 10c27.57 0 50-22.43 50-50s-22.43-50-50-50z" fill="#000000" style="fill: rgb(148, 133, 153);"></path><path d="m432.283 352.728h-332.283c-5.523 0-10 4.478-10 10s4.477 10 10 10h332.283c26.312 0 47.717 24.061 47.717 53.636s-21.405 53.636-47.717 53.636c-5.522 0-10 4.478-10 10s4.478 10 10 10c37.339 0 67.717-33.033 67.717-73.637 0-40.602-30.378-73.635-67.717-73.635z" fill="#000000" style="fill: rgb(148, 133, 153);"></path><path d="m500 246.364c0-19.528-8.748-39.065-24.002-53.601-15.181-14.466-35.592-22.763-55.998-22.763-33.084 0-60 26.916-60 60 0 5.523 4.478 10 10 10s10-4.477 10-10c0-22.056 17.944-40 40-40 31.963 0 60 26.338 60 56.364 0 29.575-26.053 53.636-58.076 53.636h-391.924c-5.523 0-10 4.478-10 10s4.477 10 10 10h391.923c43.053 0 78.077-33.033 78.077-73.636z" fill="#000000" style="fill: rgb(148, 133, 153);"></path></g></g></svg>