<!-- icon666.com - MILLIONS vector ICONS FREE --><svg xmlns="http://www.w3.org/2000/svg" viewBox="0 0 128 128"><g><path d="M14.906,38.714l-.828,2.441a11.028,11.028,0,0,1-2.029,3.584l-.559.658a5.009,5.009,0,0,0-1.1,4.2l.835,4.277a1.886,1.886,0,0,0,.642,1.085l1.912,1.594A1.88,1.88,0,0,1,14.45,58.2L14,62.3a5.007,5.007,0,0,0,1.209,3.843l.808.924a3,3,0,0,0,3.519.749l5.136-2.37a1.882,1.882,0,0,1,2.617,1.264l.452,1.858a1.883,1.883,0,0,0,2.809,1.162l5.5-3.355a3,3,0,0,0,.573-4.677L33.243,58.28a3,3,0,0,0-3.126-.725l-.8.279a1.882,1.882,0,0,1-2.068-.575l-2.011-2.421a1.884,1.884,0,0,1-.369-1.7l.588-2.168a3,3,0,0,1,2.8-2.216l2.7-.092a1.884,1.884,0,0,1,.641.09l6.764,2.179a1.884,1.884,0,0,1,1.22,1.232l.626,2.01a20.04,20.04,0,0,0,5.038,8.284l1.49,1.473a1.878,1.878,0,0,0,1.354.543l.976-.016a3,3,0,0,1,3.018,3.468l-.343,2.188a12.014,12.014,0,0,0-.052,3.345l.886,7.111a1.879,1.879,0,0,0,.36.895l2.587,3.458a1.882,1.882,0,0,0,3.169-.244L61.6,79.212a1.882,1.882,0,0,0,.083-1.589l-1.356-3.349a1.884,1.884,0,0,1,.949-2.412l4.03-1.881a1.877,1.877,0,0,0,.88-.847l1.507-2.943a3,3,0,0,1,3.455-1.531l3.464.933A1.881,1.881,0,0,1,76,67.41v3.908a1.883,1.883,0,0,0,1.553,1.853l2.985.531a1.882,1.882,0,0,1,1.546,2.017l-.267,3.036a4.008,4.008,0,0,0,.814,2.79l2.57,3.348a1.919,1.919,0,0,0,.381.372l2.871,2.1a1.882,1.882,0,0,0,2.994-1.519V84.28a4,4,0,0,0-.69-2.248l-1.8-2.66a1.882,1.882,0,0,1,.319-2.472l.566-.5a1.881,1.881,0,0,1,2.035-.29h0a1.881,1.881,0,0,0,2.357-.654l1.813-2.692a1.883,1.883,0,0,0,.1-1.93l-.889-1.684a4,4,0,0,0-2.47-1.989l-1.142-.318a1.882,1.882,0,0,1-1.378-1.842l.064-4.1a1.881,1.881,0,0,1,1.982-1.85l5.287.282A4,4,0,0,0,101,57.77l2.613-3.413a7.01,7.01,0,0,0,1.335-3.033l.587-3.306a5,5,0,0,0-.318-2.827l-1.541-3.641a3,3,0,0,0-3.582-1.721l-1.129.318a1.881,1.881,0,0,1-2.346-1.394L95.855,35.4a1.882,1.882,0,0,1,.5-1.748l1.829-1.829a1.883,1.883,0,0,1,2.265-.3l3.446,1.969a1.883,1.883,0,0,0,.682.231l2.513.34a1.883,1.883,0,0,0,2.12-2.1l-.726-5.807a1.88,1.88,0,0,0-.934-1.4l-3.571-2.041a1.883,1.883,0,0,1-.852-1.039l-1.01-3.029a5,5,0,0,0-3.733-3.319l-6.747-1.4a1.883,1.883,0,0,0-2.263,1.769l-.172,4.385a1.883,1.883,0,0,1-.5,1.211L84,26.324a1.882,1.882,0,0,1-2,.492L78.45,25.572A9.011,9.011,0,0,0,71,26.253l-3.455,1.975a1.885,1.885,0,0,1-1.96-.056l-3.332-2.166a4,4,0,0,0-3.1-.541l-1.5.354a1.882,1.882,0,0,1-2.226-1.268l-.712-2.265A1.883,1.883,0,0,0,53.262,21l-8.384-1.553a3,3,0,0,0-3.16,1.472L40.3,23.425a1.875,1.875,0,0,0-.239,1.077l.1,1.331A1.883,1.883,0,0,1,38,27.842l-1.617-.249a1.882,1.882,0,0,0-2.15,1.6L33.7,32.961a1.889,1.889,0,0,0,.344,1.373l1,1.368a1.884,1.884,0,0,1,.152,1.976l-1.7,3.281a1.882,1.882,0,0,1-2.959.509l-2.823-2.646a1.883,1.883,0,0,1-.558-1.742l.428-2.14a1.885,1.885,0,0,0-.287-1.425l-3.52-5.2a1.883,1.883,0,0,0-2.075-.754l-2.743.784a1.881,1.881,0,0,1-1.308-.1L13.669,26.4A5.009,5.009,0,0,0,8.7,26.84l-.415.29a3.005,3.005,0,0,0-.9,3.93l1.486,2.656a1.88,1.88,0,0,0,.867.8L13.9,36.394A1.882,1.882,0,0,1,14.906,38.714Z" fill="#a5e23b"></path><path d="M99.86,87.1l-.116.026a2.455,2.455,0,0,0-1.915,2.4v1.145a2.24,2.24,0,0,0,.78,1.7l2.009,1.729a3,3,0,0,0,2.5.678l.924-.17a3,3,0,0,0,2.422-2.473l.611-3.76a2.244,2.244,0,0,1,.759-1.347l1.583-1.349a2.245,2.245,0,0,0,.5-2.8l-.5-.892a2.25,2.25,0,0,1-.282-1.218l.161-2.942a2.242,2.242,0,0,0-2.752-2.306l-.483.114a2.243,2.243,0,0,0-1.605,1.447l-2.975,8.571A2.245,2.245,0,0,1,99.86,87.1Z" fill="#a5e23b"></path><path d="M87.015,101.2l.316-1.235a2.238,2.238,0,0,0-.239-1.691l-1.417-2.415a3,3,0,0,0-2.591-1.483H81.739a2.238,2.238,0,0,1-1.292-.41l-5.261-3.708a2.237,2.237,0,0,0-.845-.365l-1.273-.259a2.242,2.242,0,0,0-2.491,3.118L71.8,95.477a10.025,10.025,0,0,0,3.468,4.148l5.019,3.441a2.24,2.24,0,0,0,1.268.393h2.547A3,3,0,0,0,87.015,101.2Z" fill="#a5e23b"></path><path d="M116.25,103.948l1.851-.28a2,2,0,0,0,1.2-3.3l-.29-.33a2.243,2.243,0,0,1-.086-2.861l1.6-2.05a2.241,2.241,0,0,0-.166-2.946l-.773-.791a2.244,2.244,0,0,0-2.105-.617l-2.184.5a2.244,2.244,0,0,0-1.571,1.331l-1.911,4.64a4.007,4.007,0,0,0,.81,4.294l1.669,1.744A2.243,2.243,0,0,0,116.25,103.948Z" fill="#a5e23b"></path><path d="M92.61,105.563,93.9,105.4a3.006,3.006,0,0,1,2.359.72l.413.361a2.243,2.243,0,0,0,1.477.555h.967a2.242,2.242,0,0,0,1.789-.89l1.058-1.4a2.242,2.242,0,0,1,2.426-.8l2.323.688a2.244,2.244,0,0,1,1.284.992l1.361,2.257a3,3,0,0,1-.866,4.024l-1.917,1.323a5.008,5.008,0,0,1-4.067.734l-8.04-2.027-3.2-.961a2.243,2.243,0,0,1-1.255-3.34l.434-.691A3,3,0,0,1,92.61,105.563Z" fill="#a5e23b"></path><g><path d="M70.69,66.35l3.464.932a.134.134,0,0,1,.1.128v3.908a3.627,3.627,0,0,0,3,3.576l2.987.532a.13.13,0,0,1,.108.14L80.077,78.6a5.728,5.728,0,0,0,1.169,4.008l2.568,3.346a3.6,3.6,0,0,0,.737.721l2.871,2.1A3.632,3.632,0,0,0,93.2,85.85V84.279a5.739,5.739,0,0,0-.991-3.229l-1.8-2.66a.133.133,0,0,1,.022-.173l.567-.5a.127.127,0,0,1,.144-.021,3.61,3.61,0,0,0,4.547-1.262L97.5,73.745a3.628,3.628,0,0,0,.2-3.723l-.888-1.683a5.779,5.779,0,0,0-3.549-2.86l-1.142-.316a.132.132,0,0,1-.1-.13l.064-4.1a.127.127,0,0,1,.042-.095.142.142,0,0,1,.1-.035l5.285.282a5.734,5.734,0,0,0,4.879-2.248L105,55.421a8.793,8.793,0,0,0,1.669-3.792l.587-3.3a6.726,6.726,0,0,0-.43-3.815l-1.54-3.642a4.766,4.766,0,0,0-5.668-2.723l-1.129.318a.134.134,0,0,1-.166-.1l-.763-3.357a.132.132,0,0,1,.036-.122l1.831-1.83a.13.13,0,0,1,.158-.021L103.031,35a3.609,3.609,0,0,0,1.317.446l2.511.34a3.632,3.632,0,0,0,4.092-4.05l-.725-5.806a3.655,3.655,0,0,0-1.8-2.7l-3.632-2.114-1.01-3.029a6.779,6.779,0,0,0-5.038-4.479L92,12.209a3.631,3.631,0,0,0-4.367,3.415l-.207,4.47-4.7,5.036a.138.138,0,0,1-.139.035l-3.555-1.244a10.757,10.757,0,0,0-8.894.812l-3.455,1.975a.134.134,0,0,1-.138,0l-3.332-2.167a5.788,5.788,0,0,0-4.455-.776l-1.5.353a.133.133,0,0,1-.155-.089l-.712-2.265a3.625,3.625,0,0,0-2.8-2.482L45.2,17.727a4.759,4.759,0,0,0-5,2.329l-1.421,2.5a3.617,3.617,0,0,0-.463,2.081l.105,1.329a.121.121,0,0,1-.042.108.119.119,0,0,1-.109.034l-1.618-.249A3.634,3.634,0,0,0,32.5,28.948l-.529,3.771a3.614,3.614,0,0,0,.665,2.648l1,1.368a.134.134,0,0,1,.011.139l-1.7,3.281a.124.124,0,0,1-.1.07.111.111,0,0,1-.113-.034l-2.822-2.645a.133.133,0,0,1-.039-.122l.429-2.142a3.653,3.653,0,0,0-.556-2.748l-3.519-5.195a3.626,3.626,0,0,0-4-1.456l-2.835.776L14.4,24.814a6.769,6.769,0,0,0-6.7.59l-.417.291a4.739,4.739,0,0,0-1.428,6.219L7.34,34.569a3.608,3.608,0,0,0,1.674,1.537l4.165,1.883a.131.131,0,0,1,.069.162l-.828,2.442a9.178,9.178,0,0,1-1.706,3.013l-.559.66a6.721,6.721,0,0,0-1.477,5.663L9.512,54.2a3.644,3.644,0,0,0,1.24,2.1L12.665,57.9a.129.129,0,0,1,.045.116l-.45,4.1A6.777,6.777,0,0,0,13.892,67.3l.808.924a4.779,4.779,0,0,0,5.57,1.185l5.136-2.37a.116.116,0,0,1,.112,0,.124.124,0,0,1,.071.087l.452,1.858a3.633,3.633,0,0,0,5.42,2.243l5.5-3.355a4.756,4.756,0,0,0,.907-7.4l-3.383-3.423A4.778,4.778,0,0,0,29.54,55.9l-.8.28a.136.136,0,0,1-.145-.041l-2.01-2.42a.132.132,0,0,1-.027-.119l.588-2.169a1.245,1.245,0,0,1,1.168-.925l2.7-.092a1.75,1.75,0,0,0-.119-3.5l-2.7.092a4.727,4.727,0,0,0-4.428,3.507l-.588,2.168a3.639,3.639,0,0,0,.712,3.271l2.01,2.42a3.643,3.643,0,0,0,3.991,1.11l.8-.279a1.255,1.255,0,0,1,1.3.3l3.382,3.422a1.254,1.254,0,0,1-.239,1.953l-5.5,3.354a.114.114,0,0,1-.118.01.119.119,0,0,1-.078-.091L28.99,66.3a3.633,3.633,0,0,0-5.052-2.439L18.8,66.231a1.261,1.261,0,0,1-1.469-.312L16.526,65a3.267,3.267,0,0,1-.786-2.5l.449-4.1a3.621,3.621,0,0,0-1.284-3.189l-1.957-1.67-.835-4.277a3.238,3.238,0,0,1,.712-2.729l.558-.659a12.687,12.687,0,0,0,2.352-4.152l.828-2.442A3.617,3.617,0,0,0,14.62,34.8L10.4,32.861,8.91,30.205a1.25,1.25,0,0,1,.376-1.64l.417-.291a3.269,3.269,0,0,1,3.231-.285l3.99,1.846a3.612,3.612,0,0,0,2.522.2l2.743-.783a.127.127,0,0,1,.146.053l3.52,5.2a.127.127,0,0,1,.02.1l-.428,2.141A3.609,3.609,0,0,0,26.525,40.1l2.822,2.646a3.632,3.632,0,0,0,5.71-.982l1.7-3.282a3.61,3.61,0,0,0-.3-3.812l-1-1.366a.138.138,0,0,1-.025-.1l.529-3.769a.126.126,0,0,1,.053-.088.123.123,0,0,1,.1-.025l1.617.249a3.632,3.632,0,0,0,4.174-3.877l-.089-1.4,1.423-2.507a1.262,1.262,0,0,1,1.318-.614l8.384,1.553a.13.13,0,0,1,.1.089l.712,2.265a3.645,3.645,0,0,0,4.3,2.447l1.5-.354a2.279,2.279,0,0,1,1.745.3l3.334,2.168a3.622,3.622,0,0,0,3.78.106l3.455-1.975a7.27,7.27,0,0,1,6-.548l3.556,1.245a3.637,3.637,0,0,0,3.853-.951l4.7-5.035a3.629,3.629,0,0,0,.976-2.337l.172-4.384a.122.122,0,0,1,.051-.1.119.119,0,0,1,.107-.024l6.748,1.4a3.266,3.266,0,0,1,2.428,2.158l1.01,3.03a3.627,3.627,0,0,0,1.643,2l3.571,2.041a.132.132,0,0,1,.067.1l.725,5.807a.124.124,0,0,1-.038.111.119.119,0,0,1-.111.036l-2.56-.355L101.321,30a3.638,3.638,0,0,0-4.369.586l-1.83,1.829a3.61,3.61,0,0,0-.973,3.373l.763,3.358a3.633,3.633,0,0,0,4.527,2.69l1.13-.318a1.254,1.254,0,0,1,1.495.717l1.54,3.643a3.235,3.235,0,0,1,.207,1.839l-.586,3.3a5.3,5.3,0,0,1-1,2.277l-2.613,3.413a2.3,2.3,0,0,1-1.911.881l-5.285-.282a3.609,3.609,0,0,0-2.673.969,3.657,3.657,0,0,0-1.154,2.6l-.064,4.1a3.635,3.635,0,0,0,2.66,3.557l1.142.318a2.259,2.259,0,0,1,1.39,1.12l.889,1.684a.131.131,0,0,1-.006.134l-1.814,2.692a.13.13,0,0,1-.166.046,3.635,3.635,0,0,0-3.927.558l-.568.5a3.636,3.636,0,0,0-.613,4.771l1.8,2.66a2.239,2.239,0,0,1,.389,1.265V85.85a.113.113,0,0,1-.072.117.111.111,0,0,1-.138-.011l-2.9-2.129-2.571-3.349a2.251,2.251,0,0,1-.458-1.57l.267-3.036a3.612,3.612,0,0,0-2.982-3.893l-2.987-.532a.131.131,0,0,1-.108-.129V67.41A3.639,3.639,0,0,0,75.065,63.9L71.6,62.971a4.774,4.774,0,0,0-5.468,2.423l-1.57,3-4.031,1.88a3.634,3.634,0,0,0-1.83,4.655l1.356,3.349a.135.135,0,0,1-.006.111l-2.907,5.47a.118.118,0,0,1-.106.071.126.126,0,0,1-.116-.053l-2.612-3.521-.886-7.112a10.279,10.279,0,0,1,.045-2.857l.343-2.188a4.741,4.741,0,0,0-1.11-3.856,4.865,4.865,0,0,0-3.667-1.633l-.973.016a.1.1,0,0,1-.1-.038l-.744-.736a1.75,1.75,0,1,0-2.462,2.488l.743.736a3.672,3.672,0,0,0,2.616,1.05l.975-.016h.023a1.254,1.254,0,0,1,1.237,1.448l-.343,2.188a13.733,13.733,0,0,0-.06,3.831l.886,7.112a3.632,3.632,0,0,0,.7,1.726l2.586,3.458a3.632,3.632,0,0,0,6.116-.471l2.907-5.472a3.62,3.62,0,0,0,.159-3.065l-1.355-3.349a.133.133,0,0,1,.066-.17l4.031-1.881a3.647,3.647,0,0,0,1.7-1.635l1.508-2.944A1.268,1.268,0,0,1,70.69,66.35Z"></path><path d="M41.88,53.657l-.626-2.009a3.618,3.618,0,0,0-1.2-1.761,1.73,1.73,0,0,0-2.438.31,1.793,1.793,0,0,0,.3,2.492l.626,2.009q.177.57.386,1.127a1.75,1.75,0,1,0,3.28-1.219C42.088,54.293,41.979,53.977,41.88,53.657Z"></path><path d="M109.624,74.636a3.965,3.965,0,0,0-3.479-.825l-.481.115a3.97,3.97,0,0,0-2.857,2.576l-2.976,8.572a.492.492,0,0,1-.358.319l-.115.026a4.183,4.183,0,0,0-3.279,4.1v1.145a3.991,3.991,0,0,0,1.389,3.027l2.009,1.728a4.726,4.726,0,0,0,3.092,1.152,4.8,4.8,0,0,0,.867-.079,1.75,1.75,0,1,0-.632-3.443,1.237,1.237,0,0,1-1.044-.283l-2.009-1.727a.5.5,0,0,1-.172-.375V89.522a.7.7,0,0,1,.553-.689l.114-.026a3.971,3.971,0,0,0,2.892-2.585l2.975-8.572a.492.492,0,0,1,.354-.318l.481-.114a.475.475,0,0,1,.429.1.485.485,0,0,1,.177.4l-.162,2.947a3.985,3.985,0,0,0,.5,2.165l.5.892a.494.494,0,0,1-.11.615L106.7,85.691a1.75,1.75,0,1,0,2.27,2.664l1.584-1.348a4,4,0,0,0,.893-4.988l-.5-.893a.491.491,0,0,1-.062-.266l.162-2.945A3.959,3.959,0,0,0,109.624,74.636Z"></path><path d="M88.711,101.633l.315-1.235a3.962,3.962,0,0,0-.424-3.009l-1.417-2.415a4.771,4.771,0,0,0-4.1-2.348H81.739a.49.49,0,0,1-.284-.091l-5.262-3.708a3.945,3.945,0,0,0-1.5-.648l-1.271-.259a3.992,3.992,0,0,0-4.437,5.55L70.208,96.2a11.766,11.766,0,0,0,4.074,4.872L79.3,104.51a3.981,3.981,0,0,0,2.258.7h2.547a4.754,4.754,0,0,0,4.606-3.574Zm-3.075-2.1-.316,1.236a1.254,1.254,0,0,1-1.215.941H81.558a.487.487,0,0,1-.279-.086l-5.017-3.441A8.273,8.273,0,0,1,73.4,94.76l-1.226-2.727a.492.492,0,0,1,.434-.7.572.572,0,0,1,.113.012l1.274.259a.476.476,0,0,1,.185.08L79.438,95.4a3.976,3.976,0,0,0,2.3.73h1.345a1.26,1.26,0,0,1,1.082.619l1.417,2.414A.5.5,0,0,1,85.636,99.532Z"></path><path d="M121.907,96.2a4,4,0,0,0-.3-5.245l-.775-.793a4.022,4.022,0,0,0-3.746-1.1l-2.184.5a4,4,0,0,0-2.8,2.372l-1.91,4.639a5.759,5.759,0,0,0,1.163,6.17l1.671,1.745a3.992,3.992,0,0,0,3.481,1.186l1.849-.28a3.752,3.752,0,0,0,2.256-6.191l-.29-.329a.492.492,0,0,1-.018-.628Zm-2.762-2.15-1.6,2.05a3.994,3.994,0,0,0,.153,5.092l.289.329a.233.233,0,0,1,.049.255.237.237,0,0,1-.2.163l-1.852.279h0a.478.478,0,0,1-.427-.146l-1.67-1.744a2.254,2.254,0,0,1-.455-2.418l1.91-4.638a.49.49,0,0,1,.345-.293l2.183-.5a.477.477,0,0,1,.112-.014.5.5,0,0,1,.351.147l.774.792A.493.493,0,0,1,119.145,94.049Z"></path><path d="M109.5,104.724a3.984,3.984,0,0,0-2.285-1.767l-2.323-.688a4,4,0,0,0-4.321,1.421l-1.056,1.4a.5.5,0,0,1-.394.2h-.967a.491.491,0,0,1-.324-.122l-.414-.362a4.772,4.772,0,0,0-3.732-1.138l-1.294.165h0a4.742,4.742,0,0,0-3.424,2.188l-.435.692a3.992,3.992,0,0,0,2.236,5.945l3.278.984,8.04,2.026a6.752,6.752,0,0,0,5.488-.991l1.918-1.322a4.764,4.764,0,0,0,1.37-6.37Zm-2,5.744-1.918,1.322a3.253,3.253,0,0,1-2.646.478l-7.964-2-3.2-.963a.491.491,0,0,1-.275-.732l.435-.692a1.253,1.253,0,0,1,.9-.578l1.292-.164a1.246,1.246,0,0,1,.985.3l.413.361a3.99,3.99,0,0,0,2.63.988h.967a4.015,4.015,0,0,0,3.186-1.585l1.056-1.4a.494.494,0,0,1,.533-.176l2.324.689a.5.5,0,0,1,.283.218l1.36,2.256A1.258,1.258,0,0,1,107.5,110.468Z"></path></g></g></svg>