<!-- icon666.com - MILLIONS vector ICONS FREE --><svg id="Layer_1" enable-background="new 0 0 256 256" viewBox="0 0 256 256" xmlns="http://www.w3.org/2000/svg"><g><g><circle cx="128" cy="128" fill="#f4efed" r="124"></circle></g><g><path d="m128 4c-1.675 0-3.341.043-5 .109 66.164 2.625 119 57.083 119 123.891s-52.836 121.266-119 123.891c1.659.066 3.325.109 5 .109 68.483 0 124-55.517 124-124s-55.517-124-124-124z" fill="#d6d1cf"></path></g><g><path d="m128 252c1.676 0 3.341-.043 5-.109-66.164-2.625-119-57.083-119-123.891s52.836-121.266 119-123.891c-1.659-.066-3.324-.109-5-.109-68.483 0-124 55.517-124 124s55.517 124 124 124z" fill="#fff"></path></g><g><path d="m128 254c-69.477 0-126-56.523-126-126s56.523-126 126-126 126 56.523 126 126-56.523 126-126 126zm0-248c-67.271 0-122 54.729-122 122s54.729 122 122 122 122-54.729 122-122-54.729-122-122-122z" fill="#690589"></path></g><g><path d="m128 226.29c-54.197 0-98.29-44.093-98.29-98.29s44.093-98.29 98.29-98.29 98.29 44.093 98.29 98.29-44.093 98.29-98.29 98.29zm0-192.58c-51.992 0-94.29 42.298-94.29 94.29s42.298 94.29 94.29 94.29 94.29-42.298 94.29-94.29-42.298-94.29-94.29-94.29z" fill="#690589"></path></g><g><path d="m128 198.633c-38.947 0-70.633-31.686-70.633-70.633s31.686-70.633 70.633-70.633 70.633 31.686 70.633 70.633-31.686 70.633-70.633 70.633zm0-137.266c-36.741 0-66.633 29.891-66.633 66.633s29.892 66.633 66.633 66.633 66.633-29.891 66.633-66.633-29.892-66.633-66.633-66.633z" fill="#690589"></path></g><g><path d="m12.682 116.602c-.086 0-.173-.005-.261-.017-1.096-.143-1.868-1.146-1.726-2.241.528-4.062 1.213-8.149 2.035-12.146.222-1.083 1.28-1.777 2.362-1.556 1.082.223 1.778 1.28 1.556 2.362-.803 3.9-1.471 7.889-1.986 11.854-.131 1.01-.991 1.744-1.98 1.744z" fill="#690589"></path></g><g><path d="m128 92.273 17.09-5.532 8.172 15.997 15.997 8.172-5.532 17.09 5.532 17.09-15.997 8.172-8.172 15.997-17.09-5.532-17.09 5.532-8.172-15.997-15.997-8.172 5.532-17.09-5.532-17.09 15.997-8.172 8.172-15.997z" fill="#fcc24c"></path></g><g><path d="m145.09 171.259c-.205 0-.412-.032-.616-.098l-16.474-5.332-16.474 5.333c-.936.303-1.95-.118-2.397-.993l-7.878-15.42-15.42-7.877c-.874-.447-1.295-1.463-.992-2.397l5.332-16.475-5.332-16.474c-.303-.934.118-1.95.992-2.397l15.42-7.877 7.878-15.42c.447-.875 1.462-1.295 2.397-.993l16.474 5.332 16.474-5.333c.936-.302 1.95.118 2.397.993l7.878 15.42 15.42 7.877c.874.447 1.295 1.463.992 2.397l-5.332 16.475 5.332 16.474c.303.934-.118 1.95-.992 2.397l-15.42 7.877-7.878 15.42c-.35.685-1.047 1.091-1.781 1.091zm-17.09-9.532c.208 0 .416.032.616.097l15.468 5.007 7.397-14.479c.191-.375.496-.679.871-.871l14.479-7.396-5.007-15.469c-.13-.4-.13-.831 0-1.231l5.007-15.469-14.479-7.396c-.375-.192-.68-.497-.871-.871l-7.397-14.479-15.468 5.007c-.4.13-.832.13-1.232 0l-15.468-5.007-7.397 14.479c-.191.375-.496.679-.871.871l-14.479 7.396 5.007 15.469c.13.4.13.831 0 1.231l-5.007 15.469 14.479 7.396c.375.192.68.497.871.871l7.397 14.479 15.468-5.007c.2-.065.408-.097.616-.097z" fill="#690589"></path></g><g><circle cx="128" cy="128" fill="#fcc24c" r="28.895"></circle></g><g><path d="m128 158.895c-17.035 0-30.895-13.859-30.895-30.895s13.86-30.895 30.895-30.895 30.895 13.859 30.895 30.895-13.86 30.895-30.895 30.895zm0-57.79c-14.83 0-26.895 12.065-26.895 26.895s12.065 26.895 26.895 26.895 26.895-12.065 26.895-26.895-12.065-26.895-26.895-26.895z" fill="#690589"></path></g><g><ellipse cx="128" cy="224.29" fill="#526faa" rx="13.472" ry="13.472" transform="matrix(.16 -.987 .987 .16 -113.897 314.71)"></ellipse></g><g><path d="m128 239.762c-8.531 0-15.473-6.941-15.473-15.472 0-8.532 6.941-15.473 15.473-15.473s15.473 6.941 15.473 15.473c0 8.531-6.942 15.472-15.473 15.472zm0-26.945c-6.326 0-11.473 5.146-11.473 11.473 0 6.326 5.146 11.472 11.473 11.472s11.473-5.146 11.473-11.472-5.147-11.473-11.473-11.473z" fill="#690589"></path></g><g><ellipse cx="59.367" cy="131.826" fill="#fcc24c" rx="13.472" ry="13.472" transform="matrix(.228 -.974 .974 .228 -82.535 159.51)"></ellipse></g><g><path d="m59.367 147.298c-8.531 0-15.473-6.941-15.473-15.472s6.941-15.472 15.473-15.472 15.473 6.941 15.473 15.472-6.942 15.472-15.473 15.472zm0-26.944c-6.326 0-11.473 5.146-11.473 11.472s5.146 11.472 11.473 11.472 11.473-5.146 11.473-11.472-5.147-11.472-11.473-11.472z" fill="#690589"></path></g><g><ellipse cx="196.633" cy="61.19" fill="#ff4397" rx="13.472" ry="13.472" transform="matrix(.23 -.973 .973 .23 91.903 238.504)"></ellipse></g><g><path d="m196.633 76.662c-8.531 0-15.473-6.941-15.473-15.472s6.941-15.472 15.473-15.472 15.473 6.941 15.473 15.472-6.942 15.472-15.473 15.472zm0-26.944c-6.326 0-11.473 5.146-11.473 11.472s5.146 11.472 11.473 11.472 11.473-5.146 11.473-11.472-5.147-11.472-11.473-11.472z" fill="#690589"></path></g></g></svg>