<!-- icon666.com - MILLIONS vector ICONS FREE --><svg version="1.1" id="Layer_1" xmlns="http://www.w3.org/2000/svg" xmlns:xlink="http://www.w3.org/1999/xlink" x="0px" y="0px" viewBox="0 0 512 512" style="enable-background:new 0 0 512 512;" xml:space="preserve"><path style="fill: rgb(203, 170, 52);" d="M330.483,365.485h-33.507c-2.024,0-4.011-0.919-5.102-2.625c-0.891-1.393-1.118-3.022-0.635-4.633 l30.16-100.532l10.729-30.37H200.412l-9.451,30.37l-39.199,97.996c-2.083,5.207,1.752,10.872,7.36,10.872h45.238 c2.007,0,3.979,0.902,5.075,2.584c0.898,1.378,1.14,2.997,0.68,4.604l-34.113,119.396c-0.77,2.691-0.02,5.587,1.959,7.567 c0.034,0.034,0.069,0.069,0.103,0.103c2.87,2.87,7.475,3.026,10.53,0.352l145.149-127.003 C337.187,371.155,335.056,365.485,330.483,365.485z" fill="#FFD94C"></path><path style="fill: rgb(205, 166, 50);" d="M159.123,366.563h5.655h39.582l0,0l0,0c2.007,0,3.979,0.902,5.075,2.584 c0.478,0.733,0.763,1.535,0.863,2.366c0.065,0.537,0.055,1.084-0.043,1.635c-0.036,0.2-0.082,0.402-0.14,0.603l-34.113,119.396 c-0.77,2.691-0.02,5.587,1.959,7.567c0.034,0.034,0.069,0.069,0.102,0.103c2.869,2.869,7.475,3.026,10.53,0.354l47.39-41.464 l3.916-3.427l36.794-128.778c0.46-1.607,0.217-3.226-0.68-4.604c-1.096-1.683-3.068-2.584-5.075-2.584H225.7 c-5.608,0-9.442-5.664-7.36-10.872l32.846-82.115h-50.774l-9.451,30.37l-39.199,97.996c-0.13,0.326-0.237,0.653-0.322,0.98 C150.166,361.584,153.865,366.563,159.123,366.563z" fill="#F7CA3E"></path><path style="fill: rgb(44, 117, 201);" d="M83.537,258.773c-41.902,0-75.992-34.089-75.992-75.992s34.089-75.992,75.992-75.992 c20.146,0,39.04,7.768,53.356,21.903C136.997,63.104,190.387,9.78,256,9.78c65.611,0,119.003,53.325,119.107,118.912 c14.313-14.133,33.21-21.902,53.356-21.902c41.902,0,75.992,34.09,75.992,75.992s-34.09,75.992-75.992,75.992H83.537z" fill="#EBF2FA"></path><path style="fill: rgb(44, 124, 186);" d="M159.528,220.978c-41.902,0-75.992-34.09-75.992-75.992c0-13.647,3.635-26.454,9.959-37.534 c-3.276-0.426-6.598-0.662-9.959-0.662c-41.902,0-75.992,34.09-75.992,75.992s34.089,75.992,75.992,75.992h344.926 c27.983,0,52.464-15.214,65.652-37.795H159.528z" fill="#DAE3EA"></path><path d="M428.519,99.245c-16.949-0.011-33.092,4.977-46.794,14.277C374.119,50.905,320.636,2.235,256,2.235 s-118.119,48.67-125.726,111.287c-13.702-9.3-29.848-14.289-46.799-14.277C37.582,99.277-0.047,136.976,0,182.869 c0.047,46.022,37.504,83.45,83.537,83.45h95.849l-35.294,88.232c-2.168,5.42-0.852,11.703,3.621,15.832 c2.676,2.472,6.26,3.725,9.904,3.725h44.55l-32.864,115.024c-1.982,6.938,0.665,14.549,6.826,18.306 c2.558,1.56,5.398,2.327,8.222,2.327c3.713,0,7.398-1.328,10.373-3.93l140.459-122.902c4.483-3.922,6.046-10.044,4.002-15.628 c-2.096-5.728-7.764-9.366-13.864-9.366h-26.12l27.486-91.621h17.746c4.465,0,8.084-3.62,8.084-8.084l0,0 c0-4.465-3.62-8.084-8.084-8.084H84.56c-36.97,0-67.819-29.356-68.383-66.322c-0.575-37.624,29.865-68.415,67.361-68.415 c18.235,0,35.314,7.18,48.097,20.218c1.44,1.468,3.354,2.43,5.41,2.482c4.943,0.127,8.529-3.745,8.486-8.181l-0.014-1.046 c0-60.922,49.563-110.484,110.484-110.484s110.483,49.563,110.483,110.484l-0.011,0.769c-0.038,2.682,1.125,5.304,3.297,6.878 c3.349,2.426,7.807,1.945,10.56-0.867c12.786-13.06,29.879-20.254,48.131-20.254c37.201-0.001,67.407,30.236,67.37,67.436 c-0.037,37.116-30.244,67.301-67.368,67.301h-44.65c-4.465,0-8.084,3.62-8.084,8.084l0,0c0,4.465,3.62,8.084,8.084,8.084h44.65 c46.036,0,83.495-37.432,83.537-83.458C512.042,136.968,474.411,99.274,428.519,99.245z M309.809,266.319l-26.83,89.431 c-1.309,4.361-0.499,8.958,2.219,12.611c2.717,3.653,6.889,5.747,11.441,5.747h24.077L185.072,492.794l33.335-116.675 c1.241-4.342,0.393-8.9-2.326-12.506c-2.72-3.607-6.87-5.674-11.386-5.674h-44.544l36.648-91.621L309.809,266.319L309.809,266.319z" fill="#000000" style="fill: rgb(33, 33, 33);"></path><path d="M61.979,293.266c-4.465,0-8.084,3.62-8.084,8.084v86.232c0,4.465,3.62,8.084,8.084,8.084s8.084-3.62,8.084-8.084V301.35 C70.063,296.886,66.444,293.266,61.979,293.266z" fill="#000000" style="fill: rgb(33, 33, 33);"></path><path d="M126.653,411.835c-4.465,0-8.084,3.62-8.084,8.084v53.895c0,4.465,3.62,8.084,8.084,8.084s8.084-3.62,8.084-8.084v-53.895 C134.737,415.454,131.117,411.835,126.653,411.835z" fill="#000000" style="fill: rgb(33, 33, 33);"></path><path d="M439.242,293.266c-4.466,0-8.084,3.62-8.084,8.084v43.116c0,4.465,3.618,8.084,8.084,8.084s8.084-3.62,8.084-8.084V301.35 C447.326,296.886,443.708,293.266,439.242,293.266z" fill="#000000" style="fill: rgb(33, 33, 33);"></path><path d="M385.347,379.498c-4.466,0-8.084,3.62-8.084,8.084v64.674c0,4.465,3.618,8.084,8.084,8.084c4.466,0,8.084-3.62,8.084-8.084 v-64.674C393.432,383.117,389.813,379.498,385.347,379.498z" fill="#000000" style="fill: rgb(33, 33, 33);"></path></svg>