<!-- icon666.com - MILLIONS vector ICONS FREE --><svg viewBox="0 -64 368.00333 368" xmlns="http://www.w3.org/2000/svg"><path d="m272 120-40-112h-96l-40 112h-40l-48 112h176l-48-112h96l-48 112h176l-48-112zm0 0" fill="#cce4ff" style="fill: rgb(206, 218, 232);"></path><path d="m319.355469 116.851562c-1.257813-2.945312-4.152344-4.851562-7.355469-4.851562h-34.367188l-38.101562-106.6875c-1.128906-3.183594-4.144531-5.3125-7.53125-5.3125h-96c-3.382812 0-6.398438 2.128906-7.535156 5.3125l-38.101563 106.6875h-34.363281c-3.199219 0-6.09375 1.90625-7.351562 4.851562l-48 112c-1.0625 2.46875-.808594 5.300782.671874 7.550782 1.480469 2.246094 3.992188 3.597656 6.679688 3.597656h352c2.691406 0 5.195312-1.351562 6.683594-3.589844 1.476562-2.25 1.734375-5.089844.671875-7.550781zm-177.714844-100.851562h84.722656l34.285157 96h-28.566407c-.015625 0-.03125 0-.054687 0h-96.027344c-.023438 0-.046875 0-.078125 0h-28.578125zm42.359375 195.699219-35.871094-83.699219h71.746094zm-163.863281 12.300781 41.144531-96h69.449219l41.136719 96zm176 0 41.136719-96h69.457031l41.144531 96zm0 0" fill="#007aff" style="fill: rgb(39, 38, 38);"></path></svg>