<!-- icon666.com - MILLIONS vector ICONS FREE --><svg viewBox="0 0 128 128" xmlns="http://www.w3.org/2000/svg"><g><g><path d="m113.89 121.5h-99.78l31.32-50.33.73-1.18 17.84-28.66 18.75 30.13 3.43 5.51z" fill="#5b362a"></path><path d="m82.75 71.46-8.6 5.2-9.48-9.82-10.14 11.28-8.37-8.13 17.84-28.66z" fill="#eaeaf0"></path><path d="m40.728 121.5h-34.228a8.585 8.585 0 0 1 4.442-7.531 6.862 6.862 0 0 1 6.72-5.5 6.772 6.772 0 0 1 2.67.542 6.335 6.335 0 0 1 8.868 1.519 7.163 7.163 0 0 1 1.152-.1 6.859 6.859 0 0 1 6.039 3.587 8.605 8.605 0 0 1 4.337 7.483z" fill="#c7e554"></path><path d="m121.5 121.5h-34.228a8.585 8.585 0 0 1 4.442-7.531 6.863 6.863 0 0 1 6.72-5.5 6.776 6.776 0 0 1 2.671.542 6.335 6.335 0 0 1 8.867 1.518 7.163 7.163 0 0 1 1.152-.1 6.862 6.862 0 0 1 6.039 3.587 8.6 8.6 0 0 1 4.337 7.484z" fill="#c7e554"></path><g><path d="m96.742 20.706v.021a6.44 6.44 0 0 1 -6.44 6.44h-13.867a5.28 5.28 0 0 1 -5.216-4.035 5.194 5.194 0 0 1 5.063-6.339 4.872 4.872 0 0 1 .794.068 6.635 6.635 0 0 1 12.524-1.161 5.072 5.072 0 0 1 2.41-.369 5.322 5.322 0 0 1 4.732 5.375z" fill="#4575bb"></path><path d="m113.89 15.456v.021a6.439 6.439 0 0 1 -6.439 6.44h-13.867a5.279 5.279 0 0 1 -5.216-4.035 5.194 5.194 0 0 1 5.062-6.339 4.872 4.872 0 0 1 .794.068 6.636 6.636 0 0 1 12.528-1.158 5.07 5.07 0 0 1 2.409-.369 5.322 5.322 0 0 1 4.729 5.372z" fill="#5590e6"></path></g><path d="m40.484 26.555h-4.508a8.78 8.78 0 0 0 -1.3-3.143l3.189-3.189a1.75 1.75 0 0 0 -2.474-2.475l-3.191 3.189a8.805 8.805 0 0 0 -3.143-1.3v-4.512a1.75 1.75 0 0 0 -3.5 0v4.508a8.792 8.792 0 0 0 -3.144 1.3l-3.188-3.189a1.75 1.75 0 0 0 -2.475 2.475l3.189 3.188a8.792 8.792 0 0 0 -1.3 3.144h-4.514a1.75 1.75 0 0 0 0 3.5h4.508a8.805 8.805 0 0 0 1.3 3.143l-3.189 3.189a1.75 1.75 0 1 0 2.475 2.474l3.189-3.189a8.78 8.78 0 0 0 3.143 1.3v4.508a1.75 1.75 0 0 0 3.5 0v-4.5a8.793 8.793 0 0 0 3.142-1.3l3.19 3.189a1.749 1.749 0 0 0 2.474-2.474l-3.185-3.191a8.793 8.793 0 0 0 1.3-3.142h4.508a1.75 1.75 0 0 0 0-3.5z" fill="#f4d844"></path></g><g fill="#180f0b"><path d="m14.12 30.05h2.744a10.472 10.472 0 0 0 1.821 4.4l-1.932 1.932a1.75 1.75 0 1 0 2.475 2.474l1.931-1.931a10.459 10.459 0 0 0 4.391 1.819v2.736a1.75 1.75 0 0 0 3.5 0v-2.734a10.472 10.472 0 0 0 4.4-1.82l1.932 1.931a1.749 1.749 0 1 0 2.474-2.474l-1.931-1.932a10.472 10.472 0 0 0 1.82-4.4h2.735a1.75 1.75 0 0 0 0-3.5h-2.735a10.459 10.459 0 0 0 -1.819-4.391l1.931-1.931a1.75 1.75 0 1 0 -2.474-2.475l-1.932 1.931a10.477 10.477 0 0 0 -4.4-1.82v-2.745a1.75 1.75 0 0 0 -3.5 0v2.744a10.474 10.474 0 0 0 -4.391 1.82l-1.931-1.931a1.75 1.75 0 0 0 -2.475 2.475l1.931 1.931a10.474 10.474 0 0 0 -1.82 4.391h-2.745a1.75 1.75 0 0 0 0 3.5zm8.167-6.762a7.1 7.1 0 1 1 -2.077 5.012 7.043 7.043 0 0 1 2.077-5.012z"></path><path d="m32.09 89.29-1.69 2.71a1.75 1.75 0 0 0 2.972 1.849l1.686-2.708a1.75 1.75 0 0 0 -2.972-1.85z"></path><path d="m91.289 98.285a1.75 1.75 0 0 0 1.484-2.675l-8.537-13.719a1.75 1.75 0 1 0 -2.971 1.85l8.535 13.719a1.747 1.747 0 0 0 1.489.825z"></path><path d="m118.032 112.5a1.75 1.75 0 0 0 -1.739 3.038 6.886 6.886 0 0 1 3.229 4.21h-30.274a6.819 6.819 0 0 1 3.309-4.248 1.747 1.747 0 0 0 .873-1.189 5.114 5.114 0 0 1 5-4.093 5.031 5.031 0 0 1 1.985.4 1.751 1.751 0 0 0 1.7-.187 4.542 4.542 0 0 1 2.656-.852 4.6 4.6 0 0 1 3.76 1.951 1.75 1.75 0 0 0 2.866-2.008 8.081 8.081 0 0 0 -4.931-3.252l-40.98-65.865a1.751 1.751 0 0 0 -2.972 0l-27.058 43.477a1.75 1.75 0 1 0 2.972 1.85l8.072-12.972 6.81 6.615a1.749 1.749 0 0 0 1.219.5h.059a1.75 1.75 0 0 0 1.243-.579l8.884-9.883 8.175 8.468a1.749 1.749 0 0 0 2.164.283l7.121-4.306 20.278 32.586a7.993 7.993 0 0 0 -1.558.64 8.613 8.613 0 0 0 -10.7 5.763 10.322 10.322 0 0 0 -4.505 6.909h-5.846l-6.82-25.535a1.75 1.75 0 1 0 -3.381.9l6.578 24.632h-24.812l6.376-29.553a1.75 1.75 0 0 0 -3.421-.739l-6.535 30.289h-5.52a10.381 10.381 0 0 0 -4.631-7 8.588 8.588 0 0 0 -7.716-4.062 8.093 8.093 0 0 0 -4.308-2.439l4.158-6.679a1.75 1.75 0 0 0 -2.972-1.849l-5.49 8.82a8.054 8.054 0 0 0 -1.226.532 8.613 8.613 0 0 0 -10.7 5.763 10.339 10.339 0 0 0 -4.674 8.664 1.751 1.751 0 0 0 1.75 1.75h115a1.751 1.751 0 0 0 1.75-1.75 10.392 10.392 0 0 0 -5.218-9zm-43.593-38.06-8.51-8.815a1.683 1.683 0 0 0 -1.29-.535 1.75 1.75 0 0 0 -1.27.58l-8.924 9.93-6.052-5.879 15.607-25.079 16.327 26.238zm-65.963 45.31a6.817 6.817 0 0 1 3.308-4.248 1.748 1.748 0 0 0 .874-1.189 5.113 5.113 0 0 1 5-4.093 5.031 5.031 0 0 1 1.985.4 1.751 1.751 0 0 0 1.7-.186 4.539 4.539 0 0 1 2.656-.853 4.592 4.592 0 0 1 3.76 1.951 1.75 1.75 0 0 0 1.716.723 5.067 5.067 0 0 1 5.37 2.6 1.752 1.752 0 0 0 .669.684 6.886 6.886 0 0 1 3.229 4.21z"></path><path d="m76.44 28.92h13.86a8.2 8.2 0 0 0 7.646-5.253h9.5a8.192 8.192 0 0 0 2.539-.4 1.75 1.75 0 0 0 -1.086-3.327 4.708 4.708 0 0 1 -1.453.229h-13.863a3.521 3.521 0 0 1 -3.5-2.654 3.475 3.475 0 0 1 .248-2.26c.006-.011.01-.024.016-.035a3.532 3.532 0 0 1 .411-.645 3.442 3.442 0 0 1 3.19-1.235 1.748 1.748 0 0 0 1.983-1.325 4.886 4.886 0 0 1 9.226-.847 1.751 1.751 0 0 0 2.281.9 3.319 3.319 0 0 1 1.58-.237 3.571 3.571 0 0 1 3.126 3.649 1.741 1.741 0 0 0 1.75 1.739 1.759 1.759 0 0 0 1.75-1.76 7.084 7.084 0 0 0 -6.33-7.115 6.9 6.9 0 0 0 -1.71.06 8.385 8.385 0 0 0 -14.621 1.403 6.9 6.9 0 0 0 -4.361 1.93 8.363 8.363 0 0 0 -12.783 3.317 6.942 6.942 0 0 0 -6.329 8.446 7.047 7.047 0 0 0 6.93 5.42zm-2.837-9.1a3.458 3.458 0 0 1 3.22-1.233 1.746 1.746 0 0 0 1.961-1.33 4.864 4.864 0 0 1 8.006-2.5 6.909 6.909 0 0 0 6.793 8.905h.363a4.686 4.686 0 0 1 -3.646 1.758h-13.86a3.533 3.533 0 0 1 -3.51-2.662 3.431 3.431 0 0 1 .67-2.934z"></path></g></g></svg>