<!-- icon666.com - MILLIONS vector ICONS FREE --><svg xmlns="http://www.w3.org/2000/svg" viewBox="0 0 64 64"><g id="World"><circle cx="32" cy="32" r="29" style="fill:#006df0"></circle><path d="M38,14h2a2.006,2.006,0,0,1,2,2v1a2.006,2.006,0,0,0,2,2h.13a1,1,0,0,1,.99.86l.68,4.76a1.608,1.608,0,0,0,3.2-.23V21a2.006,2.006,0,0,1,2-2l1.79.89A4.02,4.02,0,0,1,55,23.47V26a6,6,0,0,0,2.4,4.8l3.54,2.655c.024-.484.06-.965.06-1.455A29,29,0,0,0,36,3.281V12A2.006,2.006,0,0,0,38,14Z" style="fill:#7ed63e"></path><path d="M51.359,47H51a2,2,0,0,1-2-2V44a2,2,0,0,0-2-2H41.694a2,2,0,0,0-1.973,1.671l-.442,2.658A2,2,0,0,1,37.306,48H33.362a1,1,0,0,0-.64.232l-4.505,3.754a2,2,0,0,0-.509,2.431L29,57v3.846A29.435,29.435,0,0,0,32,61,28.957,28.957,0,0,0,55.256,49.327l-2.734-1.954A2,2,0,0,0,51.359,47Z" style="fill:#2f600a"></path><path d="M13.36,42a2,2,0,0,1,1.962,1.608l.5,2.5a3,3,0,0,0,.82,1.533l1.651,1.651A1,1,0,0,0,20,48.586V40.667a2,2,0,0,1,.4-1.2l2-2.667A2,2,0,0,1,24,36h1a4,4,0,0,0,4-4V29a4,4,0,0,0-4-4H15a2,2,0,0,1,0-4h4a2,2,0,0,0,2-2V14a2,2,0,0,1,2-2,2,2,0,0,0,2-2V3.856A29.023,29.023,0,0,0,4.771,42Z" style="fill:#5eac24"></path><path d="M46,6.608V16a37.179,37.179,0,0,1-.538,6.257L45.8,24.62a1.608,1.608,0,0,0,3.2-.23V21a2.006,2.006,0,0,1,2-2l1.79.89A4.02,4.02,0,0,1,55,23.47V26a6,6,0,0,0,2.4,4.8l3.54,2.655c.024-.484.06-.965.06-1.455A28.976,28.976,0,0,0,46,6.608Z" style="fill:#5eac24"></path><path d="M55,26V23.47a4.02,4.02,0,0,0-2.21-3.58L51,19a2.006,2.006,0,0,0-2,2v3.39a1.608,1.608,0,0,1-3.2.23l-.338-2.363A37,37,0,0,1,11.9,52.876,28.883,28.883,0,0,0,29,60.846V57l-1.292-2.583a2,2,0,0,1,.509-2.431l4.505-3.754a1,1,0,0,1,.64-.232h3.944a2,2,0,0,0,1.973-1.671l.442-2.658A2,2,0,0,1,41.694,42H47a2,2,0,0,1,2,2v1a2,2,0,0,0,2,2h.359a2,2,0,0,1,1.163.373l2.734,1.954A28.852,28.852,0,0,0,60.94,33.455L57.4,30.8A6,6,0,0,1,55,26Z" style="fill:#005ece"></path><path d="M32,2A30,30,0,1,0,62,32,30.034,30.034,0,0,0,32,2ZM59.987,31.49,58,30a5.019,5.019,0,0,1-2-4V23.47A5.05,5.05,0,0,0,53.235,19l-1.79-.891A1.01,1.01,0,0,0,51,18a3,3,0,0,0-3,3v3.39a.608.608,0,0,1-1.21.089l-.68-4.761A2.011,2.011,0,0,0,44.13,18H44a1,1,0,0,1-1-1V16a3,3,0,0,0-3-3H38a1,1,0,0,1-1-1V4.456A28.037,28.037,0,0,1,59.987,31.49ZM24,5.171V10a1,1,0,0,1-1,1,3,3,0,0,0-3,3v5a1,1,0,0,1-1,1H15a3,3,0,0,0,0,6H25a3,3,0,0,1,3,3v3a3,3,0,0,1-3,3H24a3.014,3.014,0,0,0-2.4,1.2l-2,2.667a3.014,3.014,0,0,0-.6,1.8v7.919l-1.651-1.651a2,2,0,0,1-.547-1.021l-.5-2.5A3.007,3.007,0,0,0,13.36,41H5.492A27.976,27.976,0,0,1,24,5.171ZM6.254,43H13.36a1,1,0,0,1,.981.8l.5,2.5a3.99,3.99,0,0,0,1.094,2.043L17.586,50A2,2,0,0,0,21,48.586V40.667a1.006,1.006,0,0,1,.2-.6l2-2.667A1,1,0,0,1,24,37h1a5.006,5.006,0,0,0,5-5V29a5.006,5.006,0,0,0-5-5H15a1,1,0,0,1,0-2h4a3,3,0,0,0,3-3V14a1,1,0,0,1,1-1,3,3,0,0,0,3-3V4.654a27.8,27.8,0,0,1,9-.491V12a3,3,0,0,0,3,3h2a1,1,0,0,1,1,1v1a3,3,0,0,0,3,3h.13l.681,4.77A2.608,2.608,0,0,0,50,24.39V21a1,1,0,0,1,.8-.98l1.536.763A3.034,3.034,0,0,1,54,23.47V26a7.027,7.027,0,0,0,2.8,5.6l3.125,2.344a27.83,27.83,0,0,1-4.913,13.98L53.1,46.56A2.983,2.983,0,0,0,51.359,46H51a1,1,0,0,1-1-1V44a3,3,0,0,0-3-3H41.694a2.991,2.991,0,0,0-2.959,2.507l-.443,2.657a1,1,0,0,1-.986.836H33.362a2,2,0,0,0-1.28.464l-4.5,3.754a2.987,2.987,0,0,0-.763,3.646L28,57.236V59.71A28.082,28.082,0,0,1,6.254,43ZM32,60c-.673,0-1.339-.032-2-.079V57a1,1,0,0,0-.105-.447L28.6,53.97a1,1,0,0,1,.254-1.216L33.362,49h3.944a2.991,2.991,0,0,0,2.959-2.507l.443-2.657A1,1,0,0,1,41.694,43H47a1,1,0,0,1,1,1v1a3,3,0,0,0,3,3h.359a.989.989,0,0,1,.581.187l1.874,1.339A27.956,27.956,0,0,1,32,60Z" style="fill:#231f20"></path></g></svg>