<!-- icon666.com - MILLIONS vector ICONS FREE --><svg version="1.1" id="Capa_1" xmlns="http://www.w3.org/2000/svg" xmlns:xlink="http://www.w3.org/1999/xlink" x="0px" y="0px" viewBox="0 0 455.42 455.42" style="enable-background:new 0 0 455.42 455.42;" xml:space="preserve"><path style="fill: rgb(232, 143, 17);" d="M135.361,131.856c0,0,93.897-83.015,181.543,0L227.71,272.817L135.361,131.856z" fill="#F4D103"></path><path style="fill: rgb(246, 186, 19);" d="M0,228.994L227.71,360.46V244.819c0,0-1.493-171.024-73.307-125.377 C92.255,158.941,0,228.994,0,228.994z" fill="#FFBC00"></path><path style="fill: rgb(249, 175, 26);" d="M455.42,228.994L227.71,360.46V244.819c0,0,1.493-171.024,73.307-125.377 C363.166,158.941,455.42,228.994,455.42,228.994z" fill="#F4A506"></path><path style="fill: rgb(254, 157, 22);" d="M227.71,360.46V244.819c0,0,1.493-171.024,73.307-125.377" fill="#EF920C"></path><g><path style="fill: rgb(232, 143, 17);" d="M143.013,243.708c-5.148-2.977-11.437-4.202-13.978-2.729c-2.544,1.465-0.461,5.065,4.624,8.007 c5.085,2.93,11.378,4.163,13.978,2.729S148.161,246.678,143.013,243.708z" fill="#F4D103"></path><path style="fill: rgb(232, 143, 17);" d="M73.433,226.257c-5.148-2.97-11.437-4.198-13.978-2.721c-2.544,1.461-0.461,5.061,4.624,7.999 c5.085,2.934,11.378,4.167,13.978,2.733C80.656,232.834,78.58,229.23,73.433,226.257z" fill="#F4D103"></path><path style="fill: rgb(232, 143, 17);" d="M94.243,248.623c-5.148-2.974-11.437-4.202-13.978-2.725c-2.544,1.461-0.461,5.061,4.624,8.003 c5.085,2.934,11.378,4.167,13.978,2.733C101.467,255.2,99.391,251.593,94.243,248.623z" fill="#F4D103"></path><path style="fill: rgb(232, 143, 17);" d="M169.767,284.278c-5.148-2.97-11.437-4.198-13.978-2.721c-2.544,1.461-0.461,5.061,4.624,7.999 c5.085,2.934,11.378,4.167,13.978,2.733S174.915,287.252,169.767,284.278z" fill="#F4D103"></path><path style="fill: rgb(232, 143, 17);" d="M194.595,311.009c-5.148-2.977-11.437-4.202-13.978-2.729c-2.544,1.465-0.461,5.065,4.624,8.007 c5.085,2.93,11.378,4.163,13.978,2.729S199.739,313.978,194.595,311.009z" fill="#F4D103"></path><path style="fill: rgb(232, 143, 17);" d="M200.058,210.503c-5.148-2.97-11.437-4.198-13.978-2.721c-2.544,1.461-0.461,5.061,4.624,7.999 c5.085,2.934,11.378,4.167,13.978,2.733C207.281,217.08,205.206,213.476,200.058,210.503z" fill="#F4D103"></path><path style="fill: rgb(232, 143, 17);" d="M128.918,173.497c-5.148-2.974-11.437-4.202-13.978-2.725c-2.544,1.461-0.461,5.061,4.624,8.003 c5.085,2.934,11.378,4.167,13.978,2.733S134.065,176.471,128.918,173.497z" fill="#F4D103"></path><path style="fill: rgb(232, 143, 17);" d="M159.362,216.481c-5.148-2.974-11.437-4.202-13.978-2.725c-2.544,1.461-0.461,5.061,4.624,8.003 c5.085,2.934,11.378,4.167,13.978,2.733S164.51,219.455,159.362,216.481z" fill="#F4D103"></path><path style="fill: rgb(232, 143, 17);" d="M200.058,176.096c-5.148-2.974-11.437-4.198-13.978-2.725c-2.544,1.465-0.461,5.065,4.624,8.003 c5.085,2.93,11.378,4.163,13.978,2.729C207.281,182.67,205.206,179.062,200.058,176.096z" fill="#F4D103"></path><path style="fill: rgb(232, 143, 17);" d="M204.997,249.687c-5.148-2.974-11.437-4.198-13.978-2.725c-2.544,1.465-0.461,5.065,4.624,8.003 c5.085,2.93,11.378,4.163,13.978,2.729S210.145,252.656,204.997,249.687z" fill="#F4D103"></path><path style="fill: rgb(232, 143, 17);" d="M184.186,261.4c-5.148-2.974-11.437-4.202-13.978-2.725c-2.544,1.461-0.461,5.061,4.624,8.003 c5.085,2.934,11.378,4.167,13.978,2.733C191.409,267.977,189.334,264.373,184.186,261.4z" fill="#F4D103"></path><path style="fill: rgb(232, 143, 17);" d="M113.751,201.716c-5.148-2.977-11.437-4.202-13.978-2.729c-2.544,1.465-0.461,5.065,4.624,8.007 c5.085,2.93,11.378,4.163,13.978,2.729C120.974,208.289,118.898,204.686,113.751,201.716z" fill="#F4D103"></path><path style="fill: rgb(232, 143, 17);" d="M159.362,176.096c-5.148-2.974-11.437-4.198-13.978-2.725c-2.544,1.465-0.461,5.065,4.624,8.003 c5.085,2.93,11.378,4.163,13.978,2.729S164.51,179.062,159.362,176.096z" fill="#F4D103"></path><path style="fill: rgb(232, 143, 17);" d="M169.771,148.476c-5.148-2.974-11.437-4.202-13.978-2.725c-2.544,1.461-0.461,5.061,4.624,8.003 c5.085,2.934,11.378,4.167,13.978,2.733S174.919,151.45,169.771,148.476z" fill="#F4D103"></path></g></svg>