<!-- icon666.com - MILLIONS vector ICONS FREE --><svg viewBox="0 0 64 64" xmlns="http://www.w3.org/2000/svg"><g id="Filled_outline" data-name="Filled outline"><path d="m37 35h-8l2-20h4z" fill="#92cdde"></path><path d="m7 35h32v8h-32z" fill="#cdeef6"></path><path d="m52 61h-42c-1.515 0-3.322-.645-4-2l-3-8h58l-4 7c-1.133 1.511-3.111 3-5 3z" fill="#b11e48"></path><path d="m58.714 55 2.286-4h-58l1.5 4z" fill="#cdeef6"></path><path d="m5 43h36v8h-36z" fill="#92cdde"></path><path d="m41 47h16v4h-16z" fill="#32b1cc"></path><g fill="#fff69a"><path d="m8 46h2v2h-2z"></path><path d="m12 46h2v2h-2z"></path><path d="m16 46h2v2h-2z"></path><path d="m20 46h2v2h-2z"></path><path d="m24 46h2v2h-2z"></path><path d="m28 46h2v2h-2z"></path><path d="m32 46h2v2h-2z"></path><path d="m18 38h2v2h-2z"></path><path d="m14 38h2v2h-2z"></path><path d="m10 38h2v2h-2z"></path><path d="m22 38h2v2h-2z"></path><path d="m26 38h2v2h-2z"></path><path d="m30 38h2v2h-2z"></path><path d="m34 38h2v2h-2z"></path><path d="m36 46h2v2h-2z"></path></g><path d="m7 27h8v8h-8z" fill="#92cdde"></path><path d="m15 30h10v5h-10z" fill="#32b1cc"></path><path d="m10 30h2v2h-2z" fill="#fff69a"></path><path d="m19 22h6v4h-6z" fill="#b11e48" transform="matrix(-1 0 0 -1 44 48)"></path><path d="m35.4 19-.4-4h-4l-.4 4z" fill="#b11e48"></path><path d="m29.4 31h7.2l-.4-4h-6.4z" fill="#b11e48"></path><path d="m29 9a2 2 0 1 0 2-2 1.225 1.225 0 0 0 -.19.02 2.887 2.887 0 0 0 .19-1.02 2.993 2.993 0 0 0 -5.98-.2 2.95 2.95 0 0 0 -4.04 0 2.993 2.993 0 1 0 -5.76 1.32 2.992 2.992 0 1 0 3.56 1.76c.47-.12.22 2.12 4.22 2.12a2.975 2.975 0 0 0 2.02-.8 1.995 1.995 0 0 0 3.98-.2z" fill="#aabece"></path><path d="m8 24v2h-1a1 1 0 0 0 -1 1v15h-1a1 1 0 0 0 -1 1v7h-1a1 1 0 0 0 -.937 1.352l3 8c.013.032.027.064.042.1.882 1.759 3.095 2.548 4.895 2.548h42c2.4 0 4.624-1.831 5.8-3.4a.976.976 0 0 0 .068-.1l4-7a1 1 0 0 0 -.868-1.5h-3v-3a1 1 0 0 0 -1-1h-3v-2h2v-2h-16v-7a1 1 0 0 0 -1-1h-1.095l-1.91-19.1a1 1 0 0 0 -.995-.9h-4a1 1 0 0 0 -1 .9l-1.9 19.1h-2.1v-12a1 1 0 0 0 -1-1h-6a1 1 0 0 0 -1 1v4a1 1 0 0 0 1 1h5v2h-8v-2a1 1 0 0 0 -1-1h-1v-3h-2v3h-2v-2zm48.164 33.448c-.947 1.239-2.638 2.552-4.164 2.552h-42a3.623 3.623 0 0 1 -3.084-1.406l-.973-2.594h5.057v2h2v-2h2v2h2v-2h2v2h2v-2h22v2h2v-2h2v2h2v-2h7.991zm-6.164-13.448h2v2h-2zm-4 0h2v2h-2zm-4 0h2v2h-2zm0 4h14v2h-14zm17.277 4-1.143 2h-52.941l-.75-2zm-19.277-8v6h-34v-6zm-8.095-28h2.195l.2 2h-2.59zm-.4 4h2.99l.6 6h-4.19zm-.8 8h4.595l.2 2h-4.99zm-.4 4h5.395l.2 2h-5.79zm-10.305-7v-2h4v2zm-4 6h8v3h-8zm22 5v6h-30v-6zm-24-8v6h-6v-6z"></path><path d="m8 46h2v2h-2z"></path><path d="m12 46h2v2h-2z"></path><path d="m16 46h2v2h-2z"></path><path d="m20 46h2v2h-2z"></path><path d="m24 46h2v2h-2z"></path><path d="m28 46h2v2h-2z"></path><path d="m32 46h2v2h-2z"></path><path d="m18 38h2v2h-2z"></path><path d="m14 38h2v2h-2z"></path><path d="m10 38h2v2h-2z"></path><path d="m22 38h2v2h-2z"></path><path d="m26 38h2v2h-2z"></path><path d="m30 38h2v2h-2z"></path><path d="m34 38h2v2h-2z"></path><path d="m36 46h2v2h-2z"></path><path d="m10 30h2v2h-2z"></path><path d="m16 14a3.991 3.991 0 0 1 -1.964-7.471 3.9 3.9 0 0 1 -.036-.529 3.989 3.989 0 0 1 7.586-1.737 4 4 0 0 1 2.828 0 3.989 3.989 0 0 1 7.586 1.737v.17a3 3 0 1 1 -2.468 5.443 2.995 2.995 0 0 1 -5 .078 3.911 3.911 0 0 1 -1.532.309 6.568 6.568 0 0 1 -3.223-.684 4.006 4.006 0 0 1 -3.777 2.684zm2-10a1.993 1.993 0 0 0 -1.851 2.749 1 1 0 0 1 -.672 1.338 1.992 1.992 0 1 0 2.374 1.164 1 1 0 0 1 .681-1.34 1.282 1.282 0 0 1 1.446.816c.257.473.689 1.273 3.022 1.273a1.97 1.97 0 0 0 1.341-.534 1 1 0 0 1 1.674.636.995.995 0 0 0 1.985-.102v-1a1 1 0 0 1 2 0 1 1 0 1 0 1-1 1.025 1.025 0 0 1 -.949-.351 1 1 0 0 1 -.177-.982 1.858 1.858 0 0 0 .126-.667 1.993 1.993 0 0 0 -3.982-.13 1 1 0 0 1 -1.677.664 2 2 0 0 0 -2.682 0 1 1 0 0 1 -1.677-.664 2 2 0 0 0 -1.982-1.87z"></path></g></svg>