<!-- icon666.com - MILLIONS vector ICONS FREE --><svg viewBox="0 -10 426.66667 426" xmlns="http://www.w3.org/2000/svg"><path d="m245.332031 395h-202.664062l21.332031-53.332031h32l32-32 53.332031 14.222656v-99.558594h64v65.777344l10.667969 33.78125 53.332031-3.558594 19.527344 34.589844 33.808594-13.253906 32 53.332031zm0 0" fill="#42a5f5" style="fill: rgb(135, 188, 232);"></path><path d="m309.332031 75c-7.878906.011719-15.691406 1.484375-23.035156 4.34375-8.726563-42.945312-48.5625-72.300781-92.164063-67.914062-43.601562 4.382812-76.796874 41.082031-76.800781 84.902343 0 .367188.050781.71875.054688 1.082031-27.855469-5.828124-55.382813 11.234376-62.558594 38.773438s8.523437 55.863281 35.679687 64.371094c27.15625 8.511718 56.210938-5.789063 66.035157-32.5 29.066406 18.78125 66.617187 18.070312 94.949219-1.800782 13.527343 28.691407 46.035156 43.136719 76.398437 33.949219 30.359375-9.1875 49.402344-39.234375 44.75-70.609375-4.648437-31.378906-31.585937-54.609375-63.308594-54.597656zm0 0" fill="#90caf9" style="fill: rgb(134, 197, 249);"></path><g fill="#1976d2"><path d="m416 384.332031h-16.273438c-4.351562-6.648437-7.984374-13.742187-10.832031-21.164062-6.789062-15.9375-13.8125-32.398438-29.375-35.417969-8.351562-1.144531-16.820312 1.074219-23.539062 6.167969-7.621094-14.859375-20.941407-25.992188-36.917969-30.855469-13.863281-3.335938-28.34375 2.265625-36.355469 14.0625-6.707031-12.394531-6.707031-58.082031-6.707031-92.792969 0-5.890625-4.777344-10.664062-10.667969-10.664062s-10.664062 4.773437-10.664062 10.664062c0 73.167969 0 117.335938 32 117.335938 4.039062-.007813 7.730469-2.285157 9.539062-5.898438 7.273438-14.457031 15.023438-12.601562 17.960938-11.933593 13.0625 3.082031 25.832031 20.269531 25.832031 28.496093 0 4.316407 2.597656 8.203125 6.585938 9.855469 3.984374 1.652344 8.570312.738281 11.621093-2.3125 11.75-11.75 16.6875-11.207031 17.25-11.1875 4.4375.875 10.085938 14.082031 13.8125 22.855469 1.835938 4.296875 3.753907 8.597656 5.800781 12.789062h-323.472656c2.046875-4.191406 3.964844-8.492187 5.796875-12.789062 3.730469-8.773438 9.375-21.980469 13.816407-22.855469.539062 0 5.496093-.5625 17.246093 11.1875 3.050781 3.050781 7.640625 3.960938 11.625 2.3125 3.984375-1.652344 6.582031-5.539062 6.585938-9.855469 0-8.226562 12.769531-25.414062 25.832031-28.496093 2.957031-.667969 10.707031-2.523438 17.957031 11.933593 1.8125 3.613281 5.503907 5.890625 9.542969 5.898438 32 0 32-44.167969 32-117.335938 0-5.890625-4.777344-10.664062-10.667969-10.664062s-10.664062 4.773437-10.664062 10.664062c0 34.710938 0 80.398438-6.710938 92.792969-8-11.808594-22.488281-17.414062-36.351562-14.0625-15.976563 4.863281-29.296875 15.996094-36.917969 30.855469-6.726562-5.078125-15.1875-7.292969-23.539062-6.167969-15.5625 3.019531-22.585938 19.480469-29.375 35.417969-2.847657 7.421875-6.480469 14.515625-10.832032 21.164062h-16.273437c-5.890625 0-10.667969 4.777344-10.667969 10.667969s4.777344 10.667969 10.667969 10.667969h405.332031c5.890625 0 10.667969-4.777344 10.667969-10.667969s-4.777344-10.667969-10.667969-10.667969zm0 0" fill="#1976d2" style="fill: rgb(199, 219, 240);"></path><path d="m245.441406 157.394531c-24.851562 17.21875-57.609375 17.851563-83.105468 1.605469-4.945313-3.140625-11.496094-1.699219-14.667969 3.226562-3.171875 4.925782-1.777344 11.484376 3.125 14.691407 32.6875 21.285156 75.054687 20.464843 106.898437-2.0625 4.785156-3.394531 5.925782-10.019531 2.558594-14.824219-3.371094-4.800781-9.988281-5.980469-14.808594-2.636719zm0 0" fill="#1976d2" style="fill: rgb(199, 219, 240);"></path><path d="m106.667969 213.667969c8.425781.015625 16.769531-1.65625 24.539062-4.917969 5.433594-2.277344 7.988281-8.527344 5.710938-13.957031-2.28125-5.433594-8.527344-7.988281-13.960938-5.710938-5.160156 2.152344-10.699219 3.257813-16.289062 3.25-23.566407 0-42.667969-19.101562-42.667969-42.664062 0-23.566407 19.101562-42.667969 42.667969-42.667969 2.902343-.003906 5.800781.289062 8.644531.875 3.195312.429688 6.417969-.570312 8.8125-2.730469 2.488281-2.25 3.894531-5.457031 3.875-8.8125-.007812-38.359375 29.058594-70.484375 67.230469-74.296875 38.171875-3.816406 73.019531 21.921875 80.601562 59.523438.625 3.089844 2.578125 5.746094 5.34375 7.257812 2.765625 1.511719 6.054688 1.722656 8.992188.578125 19.957031-7.726562 42.597656-2.757812 57.488281 12.617188 14.886719 15.371093 19.128906 38.160156 10.773438 57.859375-8.359376 19.703125-27.695313 32.488281-49.097657 32.460937-6.796875.015625-13.53125-1.292969-19.832031-3.851562-5.464844-2.210938-11.6875.429687-13.894531 5.894531-2.210938 5.464844.429687 11.6875 5.894531 13.894531 8.84375 3.582031 18.292969 5.414063 27.832031 5.398438 41.238281 0 74.667969-33.429688 74.667969-74.667969s-33.429688-74.667969-74.667969-74.667969c-5.242187.007813-10.464843.589844-15.582031 1.730469-14.171875-42.78125-56.226562-69.917969-101.046875-65.203125-44.824219 4.714844-80.308594 40.011719-85.265625 84.808594-35.347656-.214844-64.171875 28.265625-64.386719 63.613281-.210937 35.347656 28.269531 64.171875 63.617188 64.386719zm0 0" fill="#1976d2" style="fill: rgb(199, 219, 240);"></path></g></svg>