<!-- icon666.com - MILLIONS vector ICONS FREE --><svg id="_x30_1" enable-background="new 0 0 496 496" viewBox="0 0 496 496" xmlns="http://www.w3.org/2000/svg"><g><g><g><path d="m376 104v8c0 4.42-3.58 8-8 8h-8-32-8c-4.42 0-8-3.58-8-8v-8c0-17.67 14.33-32 32-32 8.84 0 16.84 3.58 22.63 9.37s9.37 13.79 9.37 22.63z" fill="#aab2bd"></path></g><g><path d="m328 120h32v48h-32z" fill="#ccd1d9"></path></g><g><path d="m264 224v24h-48v-24c0-4.42 3.58-8 8-8h8 24c4.42 0 8 3.58 8 8z" fill="#969faa"></path></g><g><path d="m232 176v40h-8c-4.42 0-8 3.58-8 8v24h-32v-40c0-4.42-3.58-8-8-8h-24v-24c0-4.42 3.58-8 8-8h64c4.42 0 8 3.58 8 8z" fill="#aab2bd"></path></g><g><path d="m184 208v40h-64v-40c0-4.42 3.58-8 8-8h24 24c4.42 0 8 3.58 8 8z" fill="#ccd1d9"></path></g><g><path d="m120 112v16c0 4.42-3.58 8-8 8h-96c-4.42 0-8-3.58-8-8v-16c0-4.42 3.58-8 8-8h32 64c4.42 0 8 3.58 8 8z" fill="#aab2bd"></path></g><g><path d="m112 136-24 48h-48l-24-48z" fill="#ccd1d9"></path></g><g><path d="m88 184v64.8c-15.67 3.18-28.02 15.53-31.2 31.2h-16.8v-96z" fill="#ccd1d9"></path></g><g><path d="m488 176v16c0 4.42-3.58 8-8 8h-8-160-8c-4.42 0-8-3.58-8-8v-16c0-4.42 3.58-8 8-8h24 32 120c4.42 0 8 3.58 8 8z" fill="#fcd770"></path></g><g><path d="m472 200v160h-32v-120c0-4.42-3.58-8-8-8h-80c-4.42 0-8 3.58-8 8v48c0 4.42 3.58 8 8 8h32c4.42 0 8 3.58 8 8v56h-80v-80-32-48z" fill="#ffeaa7"></path></g><g><path d="m440 240v120h-48v-56c0-4.42-3.58-8-8-8h-32c-4.42 0-8-3.58-8-8v-48c0-4.42 3.58-8 8-8h80c4.42 0 8 3.58 8 8z" fill="#69d6f4"></path></g><g><path d="m312 280v80h-224v-64c0-8.84 7.16-16 16-16z" fill="#ffeaa7"></path></g><g><path d="m40 280h16.8c-.52 2.59-.8 5.26-.8 8v76.28c-4.86 2.81-8.91 6.86-11.72 11.72h-12.28c-4.42 0-8-3.58-8-8v-80c0-4.42 3.58-8 8-8z" fill="#aab2bd"></path></g><g><path d="m312 248v32h-208c-8.84 0-16 7.16-16 16v64h-16c-5.83 0-11.29 1.56-16 4.28v-76.28c0-2.74.28-5.41.8-8 3.18-15.67 15.53-28.02 31.2-31.2 2.59-.52 5.26-.8 8-.8h24 64 32 48z" fill="#fcd770"></path></g><g><path d="m56 364.28c4.71-2.72 10.17-4.28 16-4.28h16 224 80 48 32 8c4.42 0 8 3.58 8 8v16c0 4.42-3.58 8-8 8h-40-48-64-64-64-80-40c-4.42 0-8 3.58-8 8v24h-24c-4.42 0-8-3.58-8-8v-24c0-5.83 1.56-11.29 4.28-16 2.81-4.86 6.86-8.91 11.72-11.72z" fill="#fcd770"></path></g><g><path d="m80 392c-4.42 0-8 3.58-8 8v24h360c4.42 0 8-3.58 8-8v-24z" fill="#ccd1d9"></path></g><g><circle cx="120" cy="408" fill="#969faa" r="16"></circle></g><g><circle cx="328" cy="424" fill="#969faa" r="32"></circle></g><g><circle cx="264" cy="424" fill="#969faa" r="32"></circle></g><g><circle cx="200" cy="424" fill="#969faa" r="32"></circle></g><g><path d="m440 456h56v32h-56z" fill="#cf9e76"></path></g><g><path d="m344 456h48v32h-48z" fill="#cf9e76"></path></g><g><path d="m296 456v32h-48v-32h16z" fill="#cf9e76"></path></g><g><path d="m152 456h48v32h-48z" fill="#cf9e76"></path></g><g><path d="m56 456h48v32h-48z" fill="#cf9e76"></path></g><g><path d="m392 456h48v32h-48z" fill="#dfb28b"></path></g><g><path d="m344 456v32h-48v-32h32z" fill="#dfb28b"></path></g><g><path d="m200 456h48v32h-48z" fill="#dfb28b"></path></g><g><path d="m104 456h48v32h-48z" fill="#dfb28b"></path></g><g><path d="m0 456h56v32h-56z" fill="#dfb28b"></path></g></g><g><path d="m496 192v-16c0-8.822-7.178-16-16-16h-112v-32c8.822 0 16-7.178 16-16v-8c0-22.056-17.944-40-40-40s-40 17.944-40 40v8c0 8.822 7.178 16 16 16v32h-16c-8.822 0-16 7.178-16 16v16c0 8.822 7.178 16 16 16v32h-32v-16c0-8.822-7.178-16-16-16h-16v-32c0-8.822-7.178-16-16-16h-64c-8.822 0-16 7.178-16 16v16h-16c-8.822 0-16 7.178-16 16v32h-16v-54.112l21.428-42.856c6.155-2.23 10.572-8.117 10.572-15.032v-16c0-8.822-7.178-16-16-16h-59.056l-3.056-6.112c-1.235-2.471-1.888-5.237-1.888-7.999 0-9.864 8.024-17.889 17.889-17.889h9.425l18.344-18.343-11.315-11.314-13.656 13.657h-2.798c-18.687 0-33.889 15.202-33.889 33.889 0 4.851 1.075 9.701 3.094 14.111h-19.094c-8.822 0-16 7.178-16 16v16c0 6.915 4.417 12.801 10.572 15.032l21.428 42.856v86.112c-8.822 0-16 7.178-16 16v80c0 8.822 7.178 16 16 16h.805c-.527 2.586-.805 5.261-.805 8v24c0 8.822 7.178 16 16 16h24 8 80.805c1.204 5.908 3.716 11.346 7.217 16h-168.022v16h48v16h-48v16h496v-16h-48v-16h48v-16h-136.022c3.501-4.654 6.013-10.092 7.217-16h16.805 8 40c8.822 0 16-7.178 16-16v-16h32c8.822 0 16-7.178 16-16v-16c0-8.822-7.178-16-16-16v-144c8.822 0 16-7.178 16-16zm-176-88c0-13.233 10.767-24 24-24s24 10.767 24 24l.01 8s-.003 0-.01 0h-48zm16 24h16v32h-16zm-32 48h176l.01 16s-.003 0-.01 0h-176zm-208 176v-56c0-4.411 3.589-8 8-8h200v64zm160-112h-32v-16h32zm-96-64h64v32c-8.822 0-16 7.178-16 16v16h-16v-32c0-8.822-7.178-16-16-16h-16zm-32 32h48v32h-48zm176 48v16h-200c-13.233 0-24 10.766-24 24v56h-8c-2.739 0-5.414.278-8 .805v-64.805c0-17.645 14.355-32 32-32zm-259.056-80-16-32h70.112l-16 32zm-28.944-64h96l.01 16s-.003 0-.01 0h-96zm32 80h32v50.752c-13.615 4.829-24.419 15.633-29.248 29.248h-2.752zm-7.978 176h-8.022v-80h16v72.022c-3.019 2.271-5.707 4.959-7.978 7.978zm87.978 40c0 4.411-3.589 8-8 8s-8-3.589-8-8 3.589-8 8-8 8 3.589 8 8zm14.624-8h25.398c-3.501 4.654-6.013 10.092-7.217 16h-18.181c.888-2.504 1.376-5.196 1.376-8s-.488-5.496-1.376-8zm-45.248 16h-17.376v-16h17.376c-.888 2.504-1.376 5.196-1.376 8s.488 5.496 1.376 8zm78.624 8c0-13.233 10.767-24 24-24 10.429 0 19.321 6.689 22.624 16h-30.624v16h30.624c-3.303 9.311-12.195 16-22.624 16-13.233 0-24-10.767-24-24zm208 40v16h-32v-16zm-48 0v16h-32v-16zm-176 0h32v16h-32zm-16 16h-32v-16h32zm120-32c-10.429 0-19.321-6.689-22.624-16h45.248c-3.303 9.311-12.195 16-22.624 16zm-31.978 0h-.044c.007-.01.015-.019.022-.028.007.009.015.018.022.028zm-24.022 16h32v16h-32zm48 0h32v16h-32zm39.978-16c.007-.01.015-.019.022-.028.007.009.015.018.022.028zm-9.354-32h-45.248c3.303-9.311 12.195-16 22.624-16s19.321 6.689 22.624 16zm9.354-16h.044c-.007.01-.015.019-.022.028-.007-.009-.015-.018-.022-.028zm-63.978.028c-.007-.009-.015-.018-.022-.028h.044c-.007.01-.015.019-.022.028zm-168 63.972h32v16h-32zm368 16h-32v-16h32zm-126.624-48h30.624v-16h-30.624c3.303-9.311 12.195-16 22.624-16 13.233 0 24 10.767 24 24s-10.767 24-24 24c-10.429 0-19.321-6.689-22.624-16zm61.819-16c-1.204-5.908-3.716-11.346-7.217-16h24.022v16zm64.805 0h-32v-16h32zm48-32h-400c-8.822 0-16 7.178-16 16v16h-16v-24c0-13.233 10.767-24 24-24h408zm-96-96h-32v-48h80v112h-32v-48c0-8.822-7.178-16-16-16zm80 64h-16v-112c0-8.822-7.178-16-16-16h-80c-8.822 0-16 7.178-16 16v48c0 8.822 7.178 16 16 16h32v48h-64v-144h144z"></path><path d="m112 304h16v16h-16z"></path><path d="m160 304h16v16h-16z"></path><path d="m208 304h16v16h-16z"></path><path d="m256 304h16v16h-16z"></path><path d="m229.152 71.534c-5.459 5.459-12.717 8.466-20.439 8.466-4.465 0-8.935-1.055-12.928-3.052l-11.785-5.892-11.785 5.893c-3.993 1.996-8.463 3.051-12.928 3.051-7.722 0-14.98-3.007-20.44-8.467l-9.268-9.267-21.157 10.579 7.156 14.311 10.843-5.421 1.112 1.112c8.482 8.482 19.758 13.153 31.754 13.153 6.936 0 13.88-1.64 20.084-4.741l4.629-2.315 4.629 2.314c6.204 3.102 13.148 4.742 20.084 4.742 11.996 0 23.272-4.671 31.753-13.153l2.958-2.957c16.387-1.054 31.358-9.641 40.545-23.421l2.688-4.031-13.313-8.876-2.688 4.031c-6.848 10.274-18.308 16.407-30.656 16.407h-3.313z"></path><path d="m114.343 24.971c5.785-5.785 13.476-8.971 21.657-8.971s15.872 3.186 21.656 8.97l10.344 10.343 10.343-10.343c5.785-5.784 13.476-8.97 21.657-8.97s15.872 3.186 21.656 8.97l4.687 4.687 11.314-11.313-4.688-4.687c-8.806-8.807-20.515-13.657-32.969-13.657-12.002 0-23.313 4.505-32 12.713-8.687-8.208-19.998-12.713-32-12.713-12.454 0-24.163 4.85-32.971 13.657l-4.687 4.687 11.314 11.313z"></path></g></g></svg>