<!-- icon666.com - MILLIONS vector ICONS FREE --><svg version="1.1" id="Capa_1" xmlns="http://www.w3.org/2000/svg" xmlns:xlink="http://www.w3.org/1999/xlink" x="0px" y="0px" viewBox="0 0 512 512" style="enable-background:new 0 0 512 512;" xml:space="preserve"><g><circle style="fill:#D2D6CE;" cx="254.972" cy="492.435" r="19.565"></circle><polygon style="fill:#D2D6CE;" points="35.507,127.875 52.544,102.97 81.994,122.828 64.72,148.084 "></polygon></g><polygon style="fill:#B1B7AB;" points="45.935,112.63 35.507,127.875 64.72,148.084 75.287,132.634 "></polygon><path style="fill:#525360;" d="M24.462,139.085c-1.753,0-3.448-0.518-4.901-1.499l-11.094-7.587 c-1.936-1.326-3.235-3.323-3.665-5.627c-0.429-2.303,0.066-4.634,1.392-6.562L32.87,78.805c1.301-1.907,3.27-3.205,5.548-3.65 c0.555-0.109,1.124-0.164,1.689-0.164c1.766,0,3.474,0.529,4.938,1.53l11.052,7.56c1.925,1.313,3.229,3.307,3.663,5.609 c0.433,2.302-0.058,4.634-1.38,6.567l-21.399,31.286l-0.348,0.691l-0.395,0.396l-4.544,6.645 C30.028,137.676,27.335,139.085,24.462,139.085z"></path><path style="fill:#3C3F4F;" d="M39.828,116.669c-1.753,0-3.448-0.518-4.901-1.499l-11.094-7.587 c-1.936-1.326-3.235-3.323-3.665-5.627c-0.429-2.303,0.066-4.634,1.392-6.562l11.674-17.07c-0.124,0.158-0.25,0.315-0.364,0.482 L6.193,117.81c-1.325,1.929-1.821,4.259-1.392,6.562c0.43,2.303,1.73,4.301,3.665,5.627l11.094,7.587 c1.453,0.981,3.148,1.499,4.901,1.499c2.874,0,5.566-1.41,7.231-3.811l4.544-6.645l0.395-0.396l0.348-0.691l9.81-14.342 C45.111,115.386,42.556,116.669,39.828,116.669z"></path><polygon style="fill:#D2D6CE;" points="430.01,122.828 459.461,102.97 476.498,127.875 447.284,148.082 "></polygon><polygon style="fill:#B1B7AB;" points="470.031,118.422 459.461,102.97 430.01,122.828 441.298,139.332 "></polygon><path style="fill:#525360;" d="M487.541,139.085c-2.884,0-5.581-1.417-7.215-3.79l-4.559-6.664l-0.394-0.395l-0.35-0.693 l-21.4-31.29c-1.319-1.927-1.81-4.256-1.379-6.556c0.431-2.299,1.73-4.293,3.66-5.615l11.001-7.522 c1.468-1.028,3.188-1.571,4.982-1.571c0.577,0,1.155,0.058,1.723,0.172c2.266,0.449,4.227,1.743,5.531,3.655l26.68,39.008 c2.722,3.97,1.709,9.431-2.267,12.164l-11.072,7.57C490.989,138.567,489.294,139.085,487.541,139.085z"></path><path style="fill:#3C3F4F;" d="M466.7,114.339c-1.124-1.844-1.532-4.01-1.131-6.153c0.431-2.299,1.73-4.293,3.66-5.615l11.001-7.522 c1.468-1.028,3.188-1.571,4.982-1.571c0.577,0,1.155,0.058,1.723,0.172c1.217,0.241,2.341,0.733,3.328,1.426l-11.122-16.261 c-1.305-1.911-3.265-3.206-5.531-3.655c-0.569-0.114-1.146-0.172-1.723-0.172c-1.794,0-3.514,0.543-4.982,1.571l-11.001,7.522 c-1.93,1.321-3.229,3.316-3.66,5.615c-0.431,2.3,0.06,4.63,1.379,6.556l12.573,18.382 C466.364,114.537,466.529,114.431,466.7,114.339z"></path><path style="fill:#525360;" d="M199.783,490.41c-6.7,0-12.15-5.451-12.15-12.15v-50.817h134.683v50.817 c0,6.7-5.451,12.15-12.15,12.15H199.783z"></path><path style="fill:#3C3F4F;" d="M245.796,478.259v-50.817h-58.163v50.817c0,6.7,5.451,12.15,12.15,12.15h58.163 C251.247,490.41,245.796,484.959,245.796,478.259z"></path><rect x="189.687" y="60.659" style="fill:#D2D6CE;" width="132.626" height="52.66"></rect><rect x="189.687" y="60.659" style="fill:#B1B7AB;" width="57.55" height="52.66"></rect><g><path style="fill:#A9ADBF;" d="M187.118,68.884c-6.519,0-11.823-5.304-11.823-11.823s5.304-11.823,11.823-11.823h137.767 c6.519,0,11.823,5.304,11.823,11.823s-5.304,11.823-11.823,11.823H187.118z"></path><path style="fill:#A9ADBF;" d="M187.118,46.265c-6.519,0-11.823-5.304-11.823-11.823s5.304-11.823,11.823-11.823h137.767 c6.519,0,11.823,5.304,11.823,11.823s-5.304,11.823-11.823,11.823H187.118z"></path></g><g><path style="fill:#828AA0;" d="M335.265,51.406c-2.009,3.672-5.908,6.169-10.38,6.169h-88.041c-2.382,0-4.097-2.369-3.27-4.603 c1.668-4.51,6.011-7.734,11.094-7.734h-57.55c-4.472,0-8.371,2.496-10.38,6.169l0,0l0,0c-0.213,0.39-0.4,0.796-0.569,1.21 c-0.045,0.111-0.082,0.225-0.124,0.338c-0.114,0.305-0.217,0.616-0.305,0.934c-0.04,0.143-0.076,0.286-0.111,0.43 c-0.074,0.31-0.134,0.626-0.183,0.947c-0.022,0.138-0.047,0.273-0.063,0.412c-0.053,0.454-0.088,0.914-0.088,1.383 c0,6.519,5.304,11.823,11.823,11.823h57.55h79.843c6.243,0,11.691-4.682,12.163-10.907 C336.855,55.589,336.321,53.335,335.265,51.406z"></path><path style="fill:#828AA0;" d="M335.265,28.787c-2.009,3.672-5.908,6.169-10.38,6.169h-85.952c-3.793,0-6.093-4.298-3.885-7.381 c2.147-2.999,5.659-4.957,9.62-4.957h-57.55c-4.472,0-8.371,2.496-10.38,6.169l0,0l0,0c-0.213,0.39-0.4,0.796-0.569,1.21 c-0.045,0.111-0.082,0.225-0.124,0.338c-0.114,0.305-0.217,0.616-0.305,0.934c-0.04,0.143-0.076,0.286-0.111,0.43 c-0.074,0.31-0.134,0.626-0.183,0.947c-0.022,0.138-0.047,0.273-0.063,0.412c-0.053,0.454-0.088,0.914-0.088,1.383 c0,6.519,5.304,11.823,11.823,11.823h57.55h79.843c6.243,0,11.691-4.682,12.163-10.907 C336.855,32.971,336.321,30.717,335.265,28.787z"></path></g><path style="fill:#525360;" d="M162.444,23.647c-6.519,0-11.823-5.304-11.823-11.823S155.924,0,162.444,0H349.56 c6.519,0,11.823,5.304,11.823,11.823s-5.304,11.823-11.823,11.823H162.444z"></path><path style="fill:#3C3F4F;" d="M208.17,11.823C208.17,5.304,213.474,0,219.993,0h-57.55c-6.519,0-11.823,5.304-11.823,11.823 s5.304,11.823,11.823,11.823h57.55C213.474,23.647,208.17,18.343,208.17,11.823z"></path><path style="fill:#525360;" d="M48.03,195.037c-6.261-4.283-7.871-12.862-3.589-19.124l52.637-76.962 c2.564-3.75,6.813-5.989,11.366-5.989c2.78,0,5.462,0.83,7.758,2.4l45.363,31.305L93.333,226.27L48.03,195.037z"></path><path style="fill:#3C3F4F;" d="M118.719,184.175l-2.39,3.489l-45.303-31.233c-3.686-2.522-5.745-6.534-5.954-10.683l-20.631,30.166 c-4.282,6.262-2.672,14.841,3.589,19.124l45.303,31.233l27.35-39.924C119.96,185.686,119.302,184.961,118.719,184.175z"></path><path style="fill:#525360;" d="M351.382,125.526L395.8,95.362c2.301-1.571,4.983-2.4,7.761-2.4c4.552,0,8.802,2.24,11.366,5.991 l52.636,76.958c4.282,6.265,2.671,14.844-3.589,19.126l-43.236,29.632L351.382,125.526z"></path><path style="fill:#3C3F4F;" d="M441.427,138.019c0.046-0.039,0.094-0.076,0.14-0.114l-26.641-38.951 c-2.564-3.751-6.813-5.991-11.366-5.991c-2.778,0-5.46,0.829-7.761,2.4l-44.419,30.165l27.224,38.917l43.87-29.792 c2.301-1.571,4.983-2.4,7.761-2.4C434.693,132.251,438.849,134.408,441.427,138.019z"></path><path style="fill:#A9ADBF;" d="M169.035,432.238L68.303,249.813c-1.254-2.272-1.128-5.055,0.327-7.204l94.417-139.445 c1.285-1.898,3.429-3.034,5.72-3.031l175.294,0.174c2.296,0.002,4.439,1.146,5.719,3.051l92.486,137.617 c1.443,2.149,1.564,4.925,0.31,7.19L340.622,432.388c-1.216,2.198-3.532,3.561-6.043,3.558l-159.51-0.142 C172.558,435.8,170.248,434.435,169.035,432.238z"></path><path style="fill:#828AA0;" d="M239.144,435.802c-2.51-0.002-4.821-1.367-6.034-3.564L132.378,249.812 c-1.254-2.271-1.128-5.055,0.327-7.204l94.417-139.445c1.113-1.644,2.872-2.713,4.812-2.968l-63.166-0.063 c-2.292-0.002-4.435,1.134-5.72,3.031L68.629,242.609c-1.455,2.149-1.581,4.932-0.327,7.204l100.731,182.426 c1.213,2.197,3.524,3.562,6.034,3.564l159.51,0.143c0.285,0,0.566-0.023,0.845-0.057L239.144,435.802z"></path><g><path style="fill:#82838E;" d="M175.802,295.275c-1.295,0-2.608-0.326-3.814-1.014c-3.699-2.111-4.987-6.82-2.877-10.519 l76.544-134.17c2.111-3.698,6.819-4.987,10.519-2.877c3.699,2.111,4.987,6.821,2.877,10.519l-76.544,134.17 C181.084,293.878,178.481,295.275,175.802,295.275z"></path><path style="fill:#82838E;" d="M225.157,401.992c-4.227,0-7.672-3.407-7.71-7.643c-0.037-4.258,3.385-7.741,7.643-7.779 l232.353-2.056c4.275-0.076,7.741,3.385,7.779,7.643c0.037,4.258-3.385,7.741-7.643,7.779l-232.353,2.056 C225.204,401.992,225.181,401.992,225.157,401.992z"></path></g><g><path style="fill:#5B5D6E;" d="M288.35,386.011l-63.26,0.559c-4.258,0.038-7.68,3.521-7.643,7.779 c0.038,4.235,3.483,7.643,7.71,7.643c0.023,0,0.046,0,0.069,0l44.557-0.395C276.696,397.303,282.948,392.047,288.35,386.011z"></path><path style="fill:#5B5D6E;" d="M171.988,294.261c1.206,0.688,2.519,1.014,3.814,1.014c2.678,0,5.282-1.397,6.704-3.89 l25.663-44.982c-7.89,1.61-15.374,4.336-22.306,7.976l-16.752,29.364C167.001,287.441,168.289,292.15,171.988,294.261z"></path></g><path style="fill:#82838E;" d="M464.716,346.475c-2.479,0-4.912-1.193-6.403-3.404L333.441,157.702 c-2.378-3.533-1.444-8.325,2.087-10.704c3.532-2.378,8.324-1.446,10.704,2.087l124.872,185.37c2.378,3.533,1.444,8.325-2.087,10.704 C467.695,346.048,466.197,346.475,464.716,346.475z"></path><g><path style="fill:#4A4D5E;" d="M457.444,384.514l-46.213,0.409c2.415,5.731,5.873,10.915,10.122,15.333l36.227-0.321 c4.258-0.038,7.68-3.521,7.643-7.779C465.185,387.899,461.719,384.438,457.444,384.514z"></path><path style="fill:#4A4D5E;" d="M441.4,317.965l16.912,25.105c1.49,2.21,3.923,3.404,6.403,3.404c1.482,0,2.979-0.427,4.302-1.316 c3.533-2.379,4.466-7.172,2.087-10.704l-12.894-19.139c-0.233-0.003-0.465-0.017-0.699-0.017 C451.877,315.297,446.462,316.245,441.4,317.965z"></path><path style="fill:#4A4D5E;" d="M367.384,180.485l-21.151-31.4c-2.38-3.534-7.173-4.465-10.704-2.087 c-3.533,2.379-4.466,7.172-2.087,10.704l29.919,44.415C365.768,195.317,367.163,188.047,367.384,180.485z"></path></g><g><path style="fill:#5B5D6E;" d="M457.512,398.643c-18.279,0-33.149-14.871-33.149-33.149s14.871-33.149,33.149-33.149 c18.279,0,33.149,14.871,33.149,33.149S475.791,398.643,457.512,398.643z"></path><path style="fill:#5B5D6E;" d="M225.158,256.873c-40.052,0-72.637,32.585-72.637,72.637s32.585,72.637,72.637,72.637 s72.637-32.585,72.637-72.637S265.211,256.873,225.158,256.873z M225.158,359.823c-16.715,0-30.313-13.598-30.313-30.313 c0-16.715,13.598-30.313,30.313-30.313s30.313,13.598,30.313,30.313C255.471,346.225,241.873,359.823,225.158,359.823z"></path><path style="fill:#5B5D6E;" d="M296.098,120.551c-31.885,0-57.826,25.941-57.826,57.826s25.941,57.826,57.826,57.826 s57.826-25.941,57.826-57.826S327.983,120.551,296.098,120.551z M296.098,202.325c-13.205,0-23.948-10.743-23.948-23.948 c0-13.205,10.743-23.948,23.948-23.948s23.948,10.743,23.948,23.948C320.046,191.583,309.303,202.325,296.098,202.325z"></path><path style="fill:#5B5D6E;" d="M225.12,185.567c0.755,7.507,2.69,14.669,5.597,21.312l28.334-49.664 c2.111-3.699,0.822-8.409-2.877-10.519c-3.7-2.111-8.409-0.821-10.519,2.877L225.12,185.567z"></path></g><g><path style="fill:#3C3F4F;" d="M269.732,370.581c-14.282,0-27.603-4.16-38.847-11.308c-1.856,0.356-3.768,0.55-5.727,0.55 c-16.715,0-30.313-13.599-30.313-30.313c0-5.552,1.507-10.755,4.123-15.236c-1.212-5.254-1.874-10.715-1.874-16.332 c0-14.408,4.234-27.836,11.497-39.142c-32.093,7.519-56.071,36.357-56.071,70.708c0,40.052,32.585,72.637,72.637,72.637 c25.644,0,48.211-13.371,61.14-33.495C280.974,369.9,275.432,370.581,269.732,370.581z"></path><path style="fill:#3C3F4F;" d="M340.672,204.638c-10.639,0-20.607-2.9-29.18-7.934c-4.166,3.505-9.536,5.622-15.394,5.622 c-13.205,0-23.948-10.743-23.948-23.948c0-8.753,4.723-16.421,11.752-20.598c-0.686-3.553-1.057-7.217-1.057-10.968 c0-9.269,2.204-18.028,6.098-25.802c-28.519,3.538-50.671,27.907-50.671,57.368c0,31.885,25.941,57.826,57.826,57.826 c22.616,0,42.23-13.058,51.728-32.025C345.48,204.47,343.095,204.638,340.672,204.638z"></path></g><g><circle style="fill:#A9ADBF;" cx="457.51" cy="365.494" r="12.45"></circle><circle style="fill:#A9ADBF;" cx="296.096" cy="178.604" r="26.217"></circle></g><path style="fill:#828AA0;" d="M296.098,152.39c-10.335,0-19.27,5.983-23.54,14.671c3.484-1.712,7.401-2.677,11.546-2.677 c14.479,0,26.217,11.738,26.217,26.217c0,4.144-0.965,8.061-2.677,11.546c8.689-4.27,14.671-13.205,14.671-23.54 C322.315,164.128,310.577,152.39,296.098,152.39z"></path><circle style="fill:#A9ADBF;" cx="225.126" cy="329.51" r="34.946"></circle><g><path style="fill:#828AA0;" d="M225.12,294.564c-13.776,0-25.685,7.974-31.377,19.556c4.644-2.282,9.866-3.569,15.39-3.569 c19.3,0,34.946,15.646,34.946,34.946c0,5.524-1.286,10.746-3.569,15.39c11.582-5.692,19.556-17.601,19.556-31.377 C260.066,310.21,244.42,294.564,225.12,294.564z"></path><path style="fill:#828AA0;" d="M457.512,353.046c-4.988,0-9.28,2.941-11.265,7.178c1.602-0.751,3.384-1.183,5.27-1.183 c6.875,0,12.448,5.573,12.448,12.448c0,1.887-0.432,3.668-1.183,5.27c4.237-1.986,7.178-6.277,7.178-11.265 C469.96,358.619,464.387,353.046,457.512,353.046z"></path></g></svg>