<!-- icon666.com - MILLIONS vector ICONS FREE --><svg version="1.1" id="Layer_1" xmlns="http://www.w3.org/2000/svg" xmlns:xlink="http://www.w3.org/1999/xlink" x="0px" y="0px" viewBox="0 0 512 512" style="enable-background:new 0 0 512 512;" xml:space="preserve"><path style="fill:#8C614B;" d="M300.433,249.023c-3.129-7.101-10.675-10.424-17.861-10.424c-35.157,0-19.186,0-52.776,0 c-10.044,0-16.953,5.609-19.277,12.86l-0.001-0.001c-16.055,36.981-68.356,146.413-157.524,230.179c10.129,0,395.883,0,406.015,0 C349.86,379.104,294.059,234.56,300.433,249.023z"></path><path style="fill:#725346;" d="M246.674,250.084L246.674,250.084c0.661-3.432,3.354-8.639,7.872-11.484c-8.266,0-15.087,0-24.751,0 c-10.044,0-16.953,5.609-19.277,12.86l-0.001-0.001c-16.055,36.981-68.356,146.413-157.524,230.179h74.598 C196.313,393.714,234.645,287.186,246.674,250.084z"></path><g><path style="fill:#54423C;" d="M373.386,488.558c-42.075-34.221-70.18-90.67-71.355-93.055c-1.858-3.771-0.308-8.335,3.463-10.193 c3.773-1.857,8.335-0.307,10.192,3.464c0.337,0.681,27.899,55.924,67.306,87.974c3.261,2.652,3.755,7.446,1.102,10.708 C381.443,490.716,376.647,491.211,373.386,488.558z"></path><path style="fill:#54423C;" d="M127.329,483.053c-3.32-2.58-3.92-7.362-1.341-10.682c20.548-26.447,33.369-52.251,33.496-52.509 c1.86-3.768,6.425-5.314,10.193-3.459c3.77,1.858,5.32,6.421,3.462,10.19c-0.545,1.106-13.588,27.393-35.13,55.118 C135.431,485.03,130.65,485.631,127.329,483.053z"></path><path style="fill:#54423C;" d="M191.087,481.656c-3.594-2.18-4.741-6.862-2.561-10.456c25.006-41.223,38.782-81.475,38.919-81.876 c1.35-3.981,5.673-6.111,9.653-4.764c3.981,1.35,6.114,5.671,4.764,9.653c-0.578,1.706-14.457,42.247-40.319,84.883 C199.36,482.695,194.675,483.835,191.087,481.656z"></path></g><path style="fill:#FF5E48;" d="M210.518,251.46L210.518,251.46c-4.945,11.388-13.333,29.655-25.171,51.922 c-0.417,3.942,3.593,6.77,7.14,5.15l40.136-18.338c22.239,22.771,21.264,22.502,24.113,22.502s1.867,0.276,24.112-22.502 l37.248,15.448c3.539,1.473,7.407-1.378,6.973-5.251c-11.859-22.533-20.065-40.691-24.628-51.346 c-3.661-7.323-10.526-10.445-17.871-10.445c-35.157,0-19.186,0-52.776,0C219.752,238.6,212.842,244.209,210.518,251.46z"></path><path style="fill:#CE4542;" d="M185.348,303.382c-0.417,3.942,3.593,6.77,7.14,5.15l39.876-18.219 c6.507-16.92,11.258-30.813,14.311-40.228h0.001c0.66-3.432,3.353-8.639,7.871-11.484c-8.266,0-15.087,0-24.751,0 c-10.044,0-16.953,5.609-19.277,12.86l-0.001-0.001C202.809,269.216,192.753,289.629,185.348,303.382z"></path><path style="fill:#95B737;" d="M508.194,499.821c0,6.726-5.452,12.179-12.179,12.179H15.987c-6.727,0-12.179-5.453-12.179-12.179 v-8.034c0-6.726,5.452-12.179,12.179-12.179h480.028c6.727,0,12.179,5.453,12.179,12.179V499.821z"></path><path style="fill:#1C9B4F;" d="M496.015,495.804H15.987c-5.293,0-9.784-3.382-11.464-8.098c-0.901,2.528-0.716,3.487-0.716,12.115 c0,6.726,5.452,12.179,12.179,12.179h480.028c6.727,0,12.179-5.453,12.179-12.179c0-8.623,0.185-9.586-0.716-12.115 C505.799,492.422,501.308,495.804,496.015,495.804z"></path><g><path style="fill:#FF9C01;" d="M195.086,87.699c-20.24,0-36.706,16.466-36.706,36.705c0,4.204,3.408,7.612,7.612,7.612 s7.612-3.408,7.612-7.612c0-11.845,9.637-21.481,21.482-21.481s21.482,9.636,21.482,21.481v84.275c0,4.204,3.408,7.612,7.612,7.612 s7.612-3.408,7.612-7.612v-84.275C231.792,104.165,215.326,87.699,195.086,87.699z"></path><path style="fill:#FF9C01;" d="M346.01,144.14c4.204,0,7.612-3.408,7.612-7.612c0-20.24-16.466-36.707-36.706-36.707 s-36.706,16.467-36.706,36.707v72.151c0,4.204,3.408,7.612,7.612,7.612s7.612-3.408,7.612-7.612v-72.151 c0-11.846,9.637-21.483,21.482-21.483s21.482,9.637,21.482,21.483C338.398,140.732,341.806,144.14,346.01,144.14z"></path><path style="fill:#FF9C01;" d="M306.507,36.707c0,4.204,3.408,7.612,7.612,7.612s7.612-3.408,7.612-7.612 C321.731,16.467,305.264,0,285.025,0c-20.24,0-36.706,16.467-36.706,36.707v171.972c0,4.204,3.408,7.612,7.612,7.612 c4.204,0,7.612-3.408,7.612-7.612V36.707c0-11.846,9.637-21.483,21.482-21.483C296.87,15.224,306.507,24.861,306.507,36.707z"></path></g><g><path style="fill:#F7CE4D;" d="M165.992,146.185c-4.204,0-7.612,3.408-7.612,7.612v2.798c0,4.204,3.408,7.612,7.612,7.612 s7.612-3.408,7.612-7.612v-2.798C173.604,149.592,170.196,146.185,165.992,146.185z"></path><path style="fill:#F7CE4D;" d="M346.01,157.839c-4.204,0-7.612,3.408-7.612,7.612v2.798c0,4.204,3.408,7.612,7.612,7.612 s7.612-3.408,7.612-7.612v-2.798C353.622,161.247,350.214,157.839,346.01,157.839z"></path></g></svg>